<svg width="80" height="80" viewBox="0 0 80 80" fill="none" xmlns="http://www.w3.org/2000/svg">
<rect width="80" height="80" rx="40" fill="#E7E5EC"/>
<g clip-path="url(#clip0_245_6574)">
<path fill-rule="evenodd" clip-rule="evenodd" d="M44.0791 61.7346C43.4455 62.9346 42.1831 63.7602 40.7383 63.7602H39.3175C37.8727 63.7602 36.6103 62.9346 35.9767 61.7346H44.0791ZM42.8359 42.2466C43.0615 42.2466 43.2631 42.3378 43.4119 42.4866C43.5607 42.6354 43.6519 42.837 43.6519 43.0674C43.6519 43.293 43.5607 43.4946 43.4119 43.6434C43.2631 43.7922 43.0615 43.8834 42.8359 43.8834H42.0199V43.0674C42.0199 42.8418 42.1111 42.6402 42.2599 42.4866C42.4087 42.3378 42.6103 42.2466 42.8359 42.2466ZM39.9991 27.6642C33.3079 27.6642 27.8839 33.0882 27.8839 39.7794C27.8839 43.0386 29.1655 45.9906 31.2583 48.1698C32.7511 49.725 33.6055 51.5346 33.8215 53.6034C33.8359 53.5986 33.8551 53.5986 33.8695 53.5986H37.9783V45.3906H37.1623C36.5239 45.3906 35.9383 45.1266 35.5159 44.7042C35.0935 44.2818 34.8343 43.701 34.8343 43.0626C34.8343 42.4194 35.0935 41.8386 35.5159 41.4162C35.9383 40.9938 36.5191 40.7298 37.1623 40.7298C37.8007 40.7298 38.3863 40.9938 38.8087 41.4162C39.2311 41.8386 39.4903 42.4194 39.4903 43.0626V43.8786H40.5127V43.0626C40.5127 42.4194 40.7767 41.8386 41.1991 41.4162C41.6215 40.9938 42.2023 40.7298 42.8455 40.7298C43.4839 40.7298 44.0647 40.9938 44.4871 41.4162C44.9095 41.8386 45.1735 42.4194 45.1735 43.0626C45.1735 43.701 44.9095 44.2818 44.4871 44.7042C44.0647 45.1266 43.4839 45.3906 42.8455 45.3906H42.0295V53.6082H46.1335C46.1527 53.6082 46.1671 53.6082 46.1815 53.613C46.3975 51.5442 47.2519 49.7346 48.7447 48.1794C50.8327 46.0002 52.1191 43.0482 52.1191 39.789C52.1143 33.093 46.6903 27.6642 39.9991 27.6642ZM41.2663 55.1106H38.7319H33.8791V56.5362H46.1191V55.1106H41.2663ZM39.4855 45.3906H40.5079V53.6082H39.4855V45.3906ZM37.1623 42.2466C37.3879 42.2466 37.5895 42.3378 37.7383 42.4866C37.8871 42.6354 37.9783 42.837 37.9783 43.0674V43.8834H37.1623C36.9367 43.8834 36.7351 43.7922 36.5863 43.6434C36.4375 43.4946 36.3463 43.293 36.3463 43.0674C36.3463 42.8418 36.4375 42.6402 36.5863 42.4866C36.7303 42.3378 36.9367 42.2466 37.1623 42.2466ZM46.1191 58.0482H33.8791V58.6098C33.8791 59.4978 34.6039 60.2274 35.4967 60.2274H44.5063C45.3991 60.2274 46.1239 59.5026 46.1239 58.6098V58.0482H46.1191ZM52.0231 26.6898C51.7303 26.9826 51.7303 27.4626 52.0231 27.7554C52.3159 28.0482 52.7959 28.0482 53.0887 27.7554L56.6455 24.1986C56.9383 23.9058 56.9383 23.4258 56.6455 23.133C56.3527 22.8402 55.8727 22.8402 55.5799 23.133L52.0231 26.6898ZM39.2455 22.0194C39.2455 22.437 39.5815 22.773 39.9991 22.773C40.4167 22.773 40.7527 22.437 40.7527 22.0194V16.9938C40.7527 16.5762 40.4167 16.2402 39.9991 16.2402C39.5815 16.2402 39.2455 16.581 39.2455 16.9938V22.0194ZM57.7591 39.0258C57.3415 39.0258 57.0055 39.3666 57.0055 39.7794C57.0055 40.197 57.3415 40.533 57.7591 40.533H62.7847C63.2023 40.533 63.5383 40.1922 63.5383 39.7794C63.5383 39.3618 63.1975 39.0258 62.7847 39.0258H57.7591ZM53.1031 51.8226C52.8103 51.5298 52.3303 51.5298 52.0327 51.8226C51.7351 52.1154 51.7399 52.5954 52.0327 52.8882L55.5751 56.4306C55.8679 56.7234 56.3479 56.7234 56.6407 56.4306C56.9335 56.1378 56.9335 55.6578 56.6407 55.365L53.1031 51.8226ZM26.9047 27.7554C27.1975 28.0482 27.6775 28.0482 27.9751 27.7554C28.2679 27.4626 28.2679 26.9826 27.9751 26.6898L24.4231 23.1378C24.1303 22.845 23.6503 22.845 23.3575 23.1378C23.0647 23.4306 23.0647 23.9106 23.3575 24.2034L26.9047 27.7554ZM22.2343 40.5378C22.6519 40.5378 22.9879 40.197 22.9879 39.7842C22.9879 39.3666 22.6519 39.0306 22.2343 39.0306H17.2087C16.7911 39.0306 16.4551 39.3714 16.4551 39.7842C16.4551 40.2018 16.7911 40.5378 17.2087 40.5378H22.2343ZM27.9607 52.8882C28.2535 52.5954 28.2535 52.1154 27.9607 51.8226C27.6679 51.5298 27.1879 51.5298 26.8951 51.8226L23.3527 55.3602C23.0599 55.653 23.0599 56.133 23.3527 56.4258C23.6455 56.7186 24.1255 56.7186 24.4183 56.4258L27.9607 52.8882Z" fill="#3C0079"/>
</g>
<defs>
<clipPath id="clip0_245_6574">
<rect width="48" height="48" fill="white" transform="translate(16 16)"/>
</clipPath>
</defs>
</svg>
