<svg width="80" height="80" viewBox="0 0 80 80" fill="none" xmlns="http://www.w3.org/2000/svg">
<rect width="80" height="80" rx="40" fill="#F9EEF1"/>
<g clip-path="url(#clip0_245_6580)">
<path d="M60 31.6667V33.3333H20V31.6667C20 27.065 23.7317 23.3333 28.3333 23.3333H30V21.6667C30 20.7467 30.7467 20 31.6667 20C32.5867 20 33.3333 20.7467 33.3333 21.6667V23.3333H46.6667V21.6667C46.6667 20.7467 47.4133 20 48.3333 20C49.2533 20 50 20.7467 50 21.6667V23.3333H51.6667C56.2683 23.3333 60 27.065 60 31.6667ZM60 48.3333C60 54.7667 54.765 60 48.3333 60C41.9017 60 36.6667 54.7667 36.6667 48.3333C36.6667 41.9 41.9017 36.6667 48.3333 36.6667C54.765 36.6667 60 41.9 60 48.3333ZM51.6667 49.31L50 47.6433V45C50 44.08 49.2533 43.3333 48.3333 43.3333C47.4133 43.3333 46.6667 44.08 46.6667 45V48.3333C46.6667 48.775 46.8417 49.2 47.155 49.5117L49.31 51.6667C49.96 52.3167 51.0167 52.3167 51.6667 51.6667C52.3167 51.0167 52.3167 49.96 51.6667 49.31ZM33.3333 48.3333C33.3333 43.6183 35.5133 39.4167 38.915 36.6667H20V51.6667C20 56.2683 23.7317 60 28.3333 60H38.915C35.5133 57.25 33.3333 53.0483 33.3333 48.3333Z" fill="#C75470"/>
</g>
<defs>
<clipPath id="clip0_245_6580">
<rect width="40" height="40" fill="white" transform="translate(20 20)"/>
</clipPath>
</defs>
</svg>
