<svg width="191" height="200" viewBox="0 0 191 200" fill="none" xmlns="http://www.w3.org/2000/svg">
<path d="M105.531 3.9772C101.44 8.63627 96.099 18.7499 97.1217 19.7726C98.9399 21.5908 102.917 20.3408 103.599 17.7271C103.94 16.2499 106.553 11.9317 109.394 8.06809C112.235 4.3181 114.508 0.909027 114.508 0.568121C114.508 0.227213 113.258 -5.91278e-05 111.781 -5.91278e-05C110.076 -5.91278e-05 107.69 1.47721 105.531 3.9772Z" fill="#3C0079"/>
<path d="M121.441 21.5908C117.009 25.4544 113.373 29.0907 113.373 29.6589C113.373 30.2271 114.509 30.6816 115.987 30.6816C118.6 30.6816 133.259 18.7499 133.259 16.5908C133.259 13.409 128.828 15.3408 121.441 21.5908Z" fill="#3C0079"/>
<path d="M63.2582 35.3407C60.8718 37.7271 60.7582 38.4089 61.44 53.2952C61.8945 61.8179 62.5764 72.386 62.9173 76.8178L63.7127 84.9996L46.8946 93.295C28.5992 102.386 22.4629 107.045 22.4629 111.704C22.4629 117.159 28.2583 119.318 50.6446 122.499C58.94 123.749 65.9854 124.886 66.0991 125.113C66.3263 125.34 67.4627 132.386 68.4854 140.795C70.8718 159.545 72.9172 167.954 76.099 171.249C84.0535 179.658 91.6671 173.067 106.781 144.886L112.803 133.522L122.462 136.022C135.417 139.545 150.19 142.045 157.235 142.045C164.053 142.045 167.121 139.658 165.985 135.227C165.19 131.704 152.462 113.749 142.917 102.386L135.871 93.9768L140.985 83.0678C149.053 66.0224 150.758 56.8179 146.326 52.8406C142.576 49.4315 135.19 51.3634 119.508 59.5451L105.644 66.9315L91.099 52.1588C72.8036 33.6362 67.9172 30.6816 63.2582 35.3407ZM88.3717 57.2724C96.7807 65.7951 104.167 72.7269 104.849 72.7269C105.531 72.7269 109.735 70.4542 114.167 67.7269C129.962 57.8406 139.508 53.8633 141.667 56.0224C144.053 58.4088 142.917 63.0678 136.099 78.8632L129.394 94.7723L133.599 99.7722C151.553 121.363 160.53 134.204 159.508 137.045C158.485 139.772 148.599 138.636 128.712 133.408C119.962 131.136 111.781 129.204 110.531 129.09C108.713 128.977 106.553 132.272 99.7353 145.227C91.6671 160.795 85.0762 170.454 82.5763 170.454C79.6217 170.454 75.3036 151.931 74.0536 133.522C73.599 127.499 72.6899 122.272 72.0081 121.931C71.3263 121.477 64.9627 120.568 57.69 119.772C40.6446 117.954 32.9174 116.136 30.1901 113.409C28.031 111.249 28.031 111.022 29.9629 108.977C32.6901 105.909 47.3491 97.6131 59.8491 91.8177L70.4172 87.045L69.7354 81.2496C68.4854 71.2496 67.5763 45.9088 68.3718 42.727C69.3945 38.5225 70.4172 39.2043 88.3717 57.2724Z" fill="#3C0079"/>
<path d="M11.0996 38.8635C11.0996 42.3862 31.895 50.7953 35.0768 48.7498C36.4404 47.8408 36.3268 47.3862 34.5086 46.0226C33.2586 45.1135 31.5541 44.318 30.7586 44.318C29.8495 44.318 26.2132 42.7271 22.4632 40.909C15.3041 37.2726 11.0996 36.5908 11.0996 38.8635Z" fill="#3C0079"/>
<path d="M0.304023 59.0907C-0.491428 60.4543 -0.7187 60.3406 12.804 64.2043C23.4857 67.1588 29.2812 67.8406 29.2812 65.9088C29.2812 65.227 29.1675 64.7724 28.9403 64.7724C28.8266 64.7724 23.3721 63.1815 16.7812 61.3634C3.94037 57.727 1.44038 57.3861 0.304023 59.0907Z" fill="#3C0079"/>
<path d="M164.508 112.954C164.508 114.772 183.712 123.863 187.69 123.863C192.349 123.863 191.212 121.704 185.303 119.204C182.235 117.954 177.349 115.681 174.394 114.204C168.258 111.022 164.508 110.568 164.508 112.954Z" fill="#3C0079"/>
<path d="M23.2589 145.113C15.5317 150.681 13.8271 153.408 18.0316 153.408C20.7589 153.408 34.0543 143.295 33.4861 141.59C32.6907 139.204 30.5316 139.886 23.2589 145.113Z" fill="#3C0079"/>
<path d="M36.8941 163.636C32.9169 167.158 29.0532 173.635 29.9623 175.226C31.0987 177.045 34.9623 176.022 36.2123 173.522C36.8941 172.158 39.2805 169.204 41.4396 166.817C47.8032 160.226 43.8259 157.499 36.8941 163.636Z" fill="#3C0079"/>
<path d="M127.69 173.749C126.213 176.022 137.803 188.635 141.326 188.635C144.281 188.635 144.394 186.022 141.553 183.636C140.076 182.272 137.349 179.317 135.531 176.931C132.576 172.954 129.054 171.476 127.69 173.749Z" fill="#3C0079"/>
<path d="M107.35 177.954C106.1 179.204 106.44 189.317 107.804 194.999C108.94 199.204 109.509 199.999 111.781 199.999C114.849 199.999 114.849 200.34 113.031 187.499C112.009 180.681 111.099 177.727 109.849 177.499C108.94 177.386 107.804 177.499 107.35 177.954Z" fill="#3C0079"/>
</svg>
