<svg width="111" height="120" viewBox="0 0 111 120" fill="none" xmlns="http://www.w3.org/2000/svg">
<g opacity="0.4">
<path d="M35.0788 1.58056C30.5154 5.85515 35.6564 12.9025 40.7397 9.3788C42.646 8.05021 43.8013 4.93091 43.1658 3.1402C41.8373 -0.267917 37.9092 -1.07662 35.0788 1.58056ZM40.1043 4.2955C40.2198 4.93091 39.7577 6.08621 39.1801 6.83715C38.1981 8.05021 37.9092 8.10798 37.1005 7.47256C35.8875 6.49056 35.9452 5.16197 37.1583 3.83338C38.3714 2.50479 39.8733 2.73585 40.1043 4.2955Z" fill="#3C0079"/>
<path d="M102.548 16.253C100.064 18.1593 99.7177 21.1053 101.682 23.4159C103.53 25.5532 107.054 25.6687 109.191 23.6469C111.328 21.6829 111.097 19.7767 108.556 17.4661C106.303 15.3866 104.223 14.9822 102.548 16.253ZM106.649 19.199C107.805 20.6432 107.169 22.7227 105.552 22.7227C103.761 22.7227 102.837 20.5276 104.108 19.2568C105.205 18.1593 105.725 18.1593 106.649 19.199Z" fill="#3C0079"/>
<path d="M39.8752 20.1811C38.9509 21.683 40.5683 50.3343 42.2435 61.714C42.7056 64.7177 42.9945 67.2016 42.8789 67.3172C42.8212 67.4327 41.0882 65.3532 39.0665 62.8115C37.0447 60.2699 33.8099 56.6884 31.9036 54.9555C27.8023 51.2586 20.1774 46.0597 16.2494 44.3845C13.5344 43.2292 10.7617 42.8827 10.7617 43.6336C10.7617 43.9224 11.686 45.6554 12.8413 47.5616C20.4662 60.1543 26.9936 76.5595 31.0372 93.1958C32.8279 100.59 35.0229 113.76 35.0229 117.226C35.0229 118.381 35.3695 119.594 35.7739 119.941C36.236 120.287 45.2473 119.132 64.5985 116.071C80.0794 113.587 92.9032 111.449 93.1343 111.276C93.3076 111.045 93.1343 109.428 92.7877 107.637C90.246 95.4486 89.1485 74.1912 90.4193 63.1581C91.979 49.9877 95.3871 39.0702 100.586 30.6365C101.972 28.4415 102.03 28.1526 101.106 27.8061C98.7952 26.9396 87.6466 34.5068 81.0614 41.4385C75.8626 46.9262 71.7613 52.876 68.7575 59.1723C66.1581 64.5444 64.7718 66.0463 64.0786 64.1401C62.5767 59.8077 54.7785 40.4565 52.93 36.5285C47.3268 24.4557 41.6659 17.2929 39.8752 20.1811ZM49.0598 35.6043C52.6989 43.056 53.0455 43.9224 52.2368 44.7311C51.4281 45.5398 51.2548 45.3665 50.6194 42.7671C50.0995 40.4565 49.6952 39.7634 48.7132 39.6478C47.6734 39.5323 47.3268 38.8969 46.8069 36.0087C45.7672 30.0589 45.4783 29.3657 44.2653 29.3657C43.341 29.3657 43.11 28.9613 43.11 27.1706C43.1678 25.1489 43.1678 25.0911 44.0342 26.1886C44.5541 26.8241 46.8069 31.0409 49.0598 35.6043ZM95.6759 33.1204C95.6759 33.2937 95.0983 34.5645 94.4051 35.8931C93.7697 37.2217 92.3256 40.8031 91.228 43.8069L89.3218 49.2945L89.6106 45.251C89.7839 42.9982 89.8995 40.341 89.8995 39.2435C89.8995 37.6838 90.4193 36.8174 92.3256 35.0266C94.5206 33.0049 95.6759 32.3695 95.6759 33.1204ZM46.8647 52.7604C49.8107 68.0681 57.6089 104.287 58.9953 108.85C59.3419 109.948 59.1108 110.121 57.0313 110.352L54.7207 110.525L54.1431 107.926C53.8542 106.482 53.2766 103.305 52.8722 100.821C52.2368 96.7772 52.2946 96.2573 53.1611 95.6219C54.0275 94.9865 53.9698 94.6399 52.4101 91.3473C51.1393 88.7479 50.2728 85.1665 49.1175 78.3502C48.2511 73.1514 47.2113 68.5302 46.8069 68.0681C46.056 67.1439 44.6119 57.2083 43.6876 46.4063C42.4746 31.7341 43.1678 33.1204 46.8647 52.7604ZM86.6646 41.6118C86.5491 42.3628 86.2025 46.1752 85.8559 50.161C85.5671 54.1468 84.4696 66.4507 83.4876 77.5993C82.5633 88.6901 81.8124 99.3766 81.9279 101.283C82.0434 103.247 81.8701 104.806 81.5236 104.864C80.7726 105.038 80.7726 103.074 81.7546 73.1514C82.2167 59.6344 82.3323 48.0237 82.1012 47.4461C81.408 45.8864 81.7546 44.9044 83.9497 42.1895C86.0292 39.6478 86.9534 39.4168 86.6646 41.6118ZM18.9066 48.2548C19.8886 48.8324 20.4662 49.5834 20.2929 50.0455C20.1196 50.5076 20.4662 51.5474 21.1016 52.3561C28.0911 62.4072 34.0409 79.9099 38.2 102.727C39.2975 108.908 40.395 114.338 40.5106 114.8C40.7416 115.32 41.377 115.493 42.4168 115.32C43.2833 115.146 46.1715 115.204 48.8865 115.377L53.7965 115.724L46.2871 116.937C38.0267 118.266 37.9112 118.266 37.9112 114.858C37.9112 111.392 35.6583 98.7412 33.5788 90.5964C30.2284 77.3105 24.1054 61.3674 18.6177 51.7207C15.9605 47.0995 16.0183 46.5796 18.9066 48.2548ZM30.5173 58.5947C33.2322 62.4072 33.6943 63.3892 33.4633 64.9488C33.29 66.0463 33.6366 68.2992 34.3875 70.4942C36.8136 78.0036 45.3628 109.832 45.074 110.352C44.9007 110.641 45.074 111.276 45.4783 111.738C46.2871 112.72 46.1715 112.836 44.4963 113.356C43.341 113.702 43.2255 113.471 42.8212 108.446C42.5901 105.5 42.0702 102.554 41.6659 101.918C41.2615 101.225 40.7416 99.5499 40.5106 98.1058C39.7596 93.0225 36.1205 79.0434 33.8099 72.2849C32.539 68.5302 29.9396 62.5227 28.0911 58.9413C24.1054 51.2586 25.0874 51.0853 30.5173 58.5947ZM74.9384 57.4971C73.6098 62.1761 71.7613 69.8588 70.7793 74.8266C70.4327 76.8483 69.9128 78.2925 69.6818 78.1769C69.1619 77.8881 68.1799 70.2054 68.411 68.4725C68.7575 65.4687 75.4583 51.6051 75.8626 52.876C76.0359 53.2803 75.5738 55.3021 74.9384 57.4971ZM78.6353 77.1372C78.4043 85.5131 78.0577 92.3293 77.8266 92.3293C77.6533 92.3293 77.6533 86.5528 77.8266 79.5055C78.5198 56.053 78.5198 55.3598 78.8086 58.8257C78.9241 60.5587 78.8664 68.819 78.6353 77.1372ZM57.7245 81.354C61.6525 96.3151 63.7898 107.059 63.0388 107.868C62.2301 108.677 61.0748 105.904 59.9773 100.416C59.3419 97.066 57.2046 87.1882 55.2984 78.4658C49.5219 51.8362 50.2151 52.7027 57.7245 81.354ZM61.7102 66.624C63.0388 70.4365 64.483 73.8446 64.9451 74.1334C66.2159 75.1732 68.0644 88.3435 67.66 93.889C67.3134 98.1635 67.3712 98.6257 68.3532 98.9145C69.2197 99.2033 69.624 100.185 70.0861 103.478C70.4905 106.424 70.4905 107.752 70.0284 108.041C68.7575 108.908 67.9488 108.446 67.9488 106.886C67.9488 106.02 67.7178 105.038 67.429 104.691C66.5625 103.824 65.1761 97.817 63.9631 89.3255C62.9811 82.7981 59.6885 65.0066 58.3599 59.4034C57.6089 56.2263 59.2841 59.8655 61.7102 66.624ZM74.6496 84.0689C74.2452 95.7952 73.7831 104.575 73.4943 104.864C73.4365 104.98 72.8588 101.745 72.2812 97.7592C71.2414 90.5386 71.2414 90.4808 72.5123 82.6248C74.7651 68.9923 75.1117 69.2234 74.6496 84.0689ZM43.3988 84.8199C47.9045 95.6219 50.5039 103.536 50.966 107.752C51.3126 111.218 51.2548 111.392 50.0995 111.392C49.4641 111.392 48.8865 111.276 48.8865 111.103C48.8865 110.814 41.2615 83.4335 39.9329 78.7546C38.4888 74.0179 39.9907 76.5595 43.3988 84.8199ZM87.0112 87.8814C87.069 90.6541 87.3 92.7914 88.4553 101.398L88.9174 104.46H87.1845C85.5671 104.46 85.3938 104.287 85.0472 102.034C84.5851 99.1455 85.8559 84.1845 86.5491 84.5888C86.7802 84.7621 87.0112 86.264 87.0112 87.8814ZM77.5956 103.131C77.48 104.98 77.4223 103.478 77.4223 99.8387C77.4223 96.1995 77.48 94.6977 77.5956 96.4884C77.7111 98.3368 77.7111 101.341 77.5956 103.131ZM89.8995 108.85C89.8995 109.832 89.4373 110.179 87.7622 110.467C83.5453 111.161 83.4298 111.103 84.5273 108.85C85.2783 107.29 85.8559 106.77 87.2423 106.655C89.2063 106.482 89.8995 107.002 89.8995 108.85ZM79.0974 109.659C79.6173 110.294 80.4838 110.814 81.0614 110.814C83.4876 110.814 80.7726 111.449 72.3967 112.836C67.3712 113.702 62.9811 114.222 62.5767 114.107C61.768 113.818 68.9308 111.969 72.3967 111.565C73.8986 111.392 75.3427 110.756 76.1514 109.948C77.8266 108.272 77.8844 108.272 79.0974 109.659Z" fill="#3C0079"/>
<path d="M1.98055 25.8998C0.709728 26.6507 -0.387803 30.5787 0.13208 32.5427C0.305375 33.3515 1.17185 34.5068 1.92279 35.1422C4.06008 36.8173 6.48621 36.644 8.50797 34.6223C11.8583 31.2719 10.0099 26.1309 5.27315 25.5532C4.00232 25.4377 2.50044 25.5532 1.98055 25.8998ZM6.48621 29.0769C7.75703 31.0409 6.89056 33.698 4.92656 33.698C3.7135 33.698 3.5402 33.4092 3.36691 31.503C3.19361 29.4235 3.94456 27.6327 5.04209 27.6327C5.33091 27.6327 5.96632 28.2682 6.48621 29.0769Z" fill="#3C0079"/>
</g>
</svg>
