<svg width="158" height="240" viewBox="0 0 158 240" fill="none" xmlns="http://www.w3.org/2000/svg">
<g opacity="0.4">
<path d="M6.15951 3.16111C-2.96733 11.7103 7.3148 25.8049 17.4814 18.7576C21.2939 16.1004 23.6045 9.86182 22.3336 6.28041C19.6765 -0.535837 11.8205 -2.15325 6.15951 3.16111ZM16.2106 8.591C16.4416 9.86182 15.5174 12.1724 14.3621 13.6743C12.3981 16.1004 11.8205 16.216 10.203 14.9451C7.77692 12.9811 7.89245 10.3239 10.3186 7.66676C12.7447 5.00958 15.7485 5.4717 16.2106 8.591Z" fill="#3C0079"/>
<path d="M141.098 32.5056C136.131 36.3181 135.437 42.2101 139.365 46.8312C143.062 51.1058 150.11 51.3369 154.384 47.2934C158.659 43.3654 158.197 39.5529 153.113 34.9317C148.608 30.7726 144.449 29.9639 141.098 32.5056ZM149.301 38.3976C151.611 41.2858 150.341 45.4449 147.106 45.4449C143.524 45.4449 141.676 41.0548 144.218 38.5131C146.413 36.3181 147.452 36.3181 149.301 38.3976Z" fill="#3C0079"/>
<path d="M15.7484 40.3617C13.8999 43.3654 17.1347 100.668 20.4851 123.427C21.4093 129.435 21.987 134.403 21.7559 134.634C21.6404 134.865 18.1745 130.706 14.131 125.622C10.0874 120.539 3.61778 113.376 -0.194698 109.91C-8.3973 102.517 -23.6472 92.1189 -31.5032 88.7686C-36.9331 86.458 -42.4785 85.7648 -42.4785 87.2667C-42.4785 87.8443 -40.63 91.3102 -38.3195 95.1227C-23.0695 120.308 -10.0147 153.119 -1.92764 186.391C1.65377 201.179 6.0439 227.52 6.0439 234.451C6.0439 236.762 6.73708 239.188 7.54578 239.881C8.47002 240.574 26.4926 238.264 65.195 232.141C96.157 227.173 121.805 222.898 122.267 222.552C122.613 222.09 122.267 218.855 121.573 215.273C116.49 190.897 114.295 148.382 116.837 126.316C119.956 99.9749 126.772 78.1398 137.17 61.2725C139.943 56.8824 140.058 56.3048 138.21 55.6116C133.589 53.8786 111.291 69.013 98.121 82.8766C87.7233 93.8519 79.5207 105.751 73.5132 118.344C68.3143 129.088 65.5416 132.092 64.1553 128.28C61.1515 119.615 45.555 80.9126 41.8581 73.0565C30.6517 48.9109 19.3298 34.5852 15.7484 40.3617ZM34.1176 71.2081C41.3959 86.1114 42.0891 87.8443 40.4717 89.4617C38.8543 91.0792 38.5077 90.7326 37.2369 85.5337C36.1971 80.9126 35.3884 79.5262 33.4244 79.2951C31.3449 79.0641 30.6517 77.7933 29.6119 72.0168C27.5324 60.1172 26.9548 58.7309 24.5286 58.7309C22.6802 58.7309 22.218 57.9222 22.218 54.3408C22.3336 50.2972 22.3336 50.1817 24.0665 52.3768C25.1063 53.6476 29.6119 62.0812 34.1176 71.2081ZM127.35 66.2403C127.35 66.5869 126.195 69.1285 124.808 71.7857C123.537 74.4429 120.649 81.6057 118.454 87.6133L114.642 98.5886L115.219 90.5015C115.566 85.9959 115.797 80.6815 115.797 78.4864C115.797 75.3671 116.837 73.6342 120.649 70.0528C125.039 66.0092 127.35 64.7384 127.35 66.2403ZM29.7275 105.52C35.6195 136.136 51.216 208.573 53.9887 217.7C54.6818 219.895 54.2197 220.241 50.0607 220.703L45.4395 221.05L44.2842 215.851C43.7065 212.963 42.5512 206.609 41.7425 201.641C40.4717 193.554 40.5872 192.514 42.3202 191.243C44.0531 189.972 43.9376 189.279 40.8183 182.694C38.2766 177.495 36.5437 170.332 34.2331 156.7C32.5002 146.302 30.4206 137.06 29.6119 136.136C28.11 134.287 25.2218 114.416 23.3733 92.8121C20.9472 63.4676 22.3336 66.2403 29.7275 105.52ZM109.327 83.2231C109.096 84.725 108.403 92.35 107.71 100.322C107.132 108.293 104.937 132.901 102.973 155.198C101.125 177.38 99.6228 198.753 99.8539 202.565C100.085 206.493 99.7384 209.612 99.0452 209.728C97.5433 210.075 97.5433 206.147 99.5073 146.302C100.432 119.268 100.663 96.0469 100.2 94.8916C98.8141 91.7723 99.5073 89.8083 103.897 84.3784C108.057 79.2951 109.905 78.833 109.327 83.2231ZM-26.1888 96.509C-24.2248 97.6643 -23.0695 99.1662 -23.4161 100.09C-23.7627 101.015 -23.0695 103.094 -21.7987 104.712C-7.81965 124.814 4.0799 159.819 12.398 205.453C14.5931 217.815 16.7881 228.675 17.0192 229.599C17.4813 230.639 18.7522 230.985 20.8317 230.639C22.5646 230.292 28.3411 230.408 33.771 230.754L43.591 231.448L28.5722 233.874C12.0514 236.531 11.8204 236.531 11.8204 229.715C11.8204 222.783 7.31472 197.482 3.15566 181.192C-3.54506 154.62 -15.7912 122.734 -26.7665 103.441C-32.0809 94.1985 -31.9653 93.1587 -26.1888 96.509ZM-2.96741 117.189C2.46248 124.814 3.38672 126.778 2.9246 129.897C2.57801 132.092 3.27119 136.598 4.77308 140.988C9.62532 156.007 26.7237 219.664 26.146 220.703C25.7995 221.281 26.146 222.552 26.9548 223.476C28.5722 225.44 28.3411 225.671 24.9907 226.711C22.6802 227.404 22.4491 226.942 21.6404 216.891C21.1783 210.999 20.1385 205.107 19.3298 203.836C18.5211 202.45 17.4813 199.099 17.0192 196.211C15.5173 186.044 8.23896 158.086 3.61778 144.569C1.07613 137.06 -4.1227 125.045 -7.81965 117.882C-15.7912 102.517 -13.8272 102.17 -2.96741 117.189ZM85.8748 114.994C83.2176 124.352 79.5207 139.717 77.5567 149.653C76.8635 153.696 75.8238 156.584 75.3616 156.353C74.3219 155.776 72.3579 140.41 72.82 136.944C73.5132 130.937 86.9146 103.21 87.7233 105.751C88.0699 106.56 87.1456 110.604 85.8748 114.994ZM93.2687 154.274C92.8066 171.026 92.1134 184.658 91.6513 184.658C91.3047 184.658 91.3047 173.105 91.6513 159.011C93.0377 112.106 93.0377 110.719 93.6153 117.651C93.8464 121.117 93.7308 137.638 93.2687 154.274ZM51.447 162.707C59.303 192.63 63.5776 214.118 62.0757 215.736C60.4583 217.353 58.1477 211.808 55.9527 200.832C54.6818 194.132 50.4072 174.376 46.5948 156.931C35.0418 103.672 36.4282 105.405 51.447 162.707ZM59.4186 133.247C62.0757 140.872 64.964 147.689 65.8882 148.266C68.4299 150.346 72.1268 176.687 71.3181 187.777C70.6249 196.327 70.7405 197.251 72.7045 197.828C74.4374 198.406 75.2461 200.37 76.1703 206.955C76.979 212.847 76.979 215.505 76.0548 216.082C73.5132 217.815 71.8958 216.891 71.8958 213.772C71.8958 212.039 71.4336 210.075 70.856 209.381C69.123 207.648 66.3503 195.633 63.9242 178.651C61.9602 165.596 55.375 130.013 52.7178 118.806C51.216 112.452 54.5663 119.73 59.4186 133.247ZM85.2972 168.137C84.4885 191.59 83.5642 209.15 82.9866 209.728C82.8711 209.959 81.7158 203.489 80.5605 195.518C78.4809 181.077 78.4809 180.961 81.0226 165.249C85.5282 137.984 86.2214 138.446 85.2972 168.137ZM22.7957 169.639C31.807 191.243 37.0058 207.071 37.9301 215.505C38.6232 222.436 38.5077 222.783 36.1971 222.783C34.9263 222.783 33.771 222.552 33.771 222.205C33.771 221.628 18.5211 166.867 15.8639 157.509C12.9757 148.035 15.9794 153.119 22.7957 169.639ZM110.021 175.762C110.136 181.308 110.598 185.582 112.909 202.796L113.833 208.919H110.367C107.132 208.919 106.786 208.573 106.092 204.067C105.168 198.291 107.71 168.368 109.096 169.177C109.558 169.524 110.021 172.528 110.021 175.762ZM91.1892 206.262C90.9581 209.959 90.8426 206.955 90.8426 199.677C90.8426 192.399 90.9581 189.395 91.1892 192.976C91.4202 196.673 91.4202 202.681 91.1892 206.262ZM115.797 217.7C115.797 219.664 114.873 220.357 111.522 220.934C103.089 222.321 102.858 222.205 105.053 217.7C106.555 214.58 107.71 213.54 110.483 213.309C114.411 212.963 115.797 214.003 115.797 217.7ZM94.1929 219.317C95.2327 220.588 96.9657 221.628 98.121 221.628C102.973 221.628 97.5433 222.898 80.7915 225.671C70.7405 227.404 61.9602 228.444 61.1515 228.213C59.5341 227.635 73.8597 223.938 80.7915 223.129C83.7953 222.783 86.6835 221.512 88.3009 219.895C91.6513 216.544 91.7668 216.544 94.1929 219.317Z" fill="#3C0079"/>
</g>
</svg>
