<svg width="80" height="80" viewBox="0 0 80 80" fill="none" xmlns="http://www.w3.org/2000/svg">
<rect width="80" height="80" rx="40" fill="#E7E5EC"/>
<path d="M39.886 30.9429C37.1431 30.9429 34.8574 33.1714 34.8574 35.9714C34.8574 38.7714 37.1431 41 39.886 41C42.6289 41 44.9146 38.7143 44.9146 35.9714C44.9146 33.2286 42.686 30.9429 39.886 30.9429Z" fill="#E7E5EC"/>
<path d="M40.0009 16.3716C37.7152 16.3716 30.1152 23.5144 30.1152 32.143C30.1152 37.6859 31.1438 43.1716 32.8009 45.9716C32.8009 45.9716 34.1152 47.343 40.0009 47.343C45.7724 47.343 47.1438 45.9716 47.1438 45.9716C47.9438 44.6002 48.6295 42.6573 49.0867 40.3144C49.5438 37.8573 49.8295 35.0573 49.8295 32.143C49.8295 31.6287 49.8295 31.1716 49.7724 30.7144C49.0295 22.7144 42.1724 16.3716 40.0009 16.3716ZM39.8867 41.0002C37.0867 41.0002 34.8581 38.7144 34.8581 35.9716C34.8581 33.2287 37.1438 30.943 39.8867 30.943C42.6295 30.943 44.9152 33.1716 44.9152 35.9716C44.9152 38.7716 42.6867 41.0002 39.8867 41.0002Z" fill="#3C0079"/>
<path d="M47.0862 47.9143C46.8576 46.9429 46.6862 48.7715 39.9433 48.7715C33.2004 48.7715 33.0862 46.9429 32.8004 47.9143C32.7433 48.0857 32.5147 50.0857 32.4576 50.8286C32.3433 51.7429 32.1719 52.8857 32.1719 54.1429C32.1719 57 33.7719 58.2 34.5719 58.2C35.429 58.2 36.1719 55.5143 36.1719 55.5143C36.2862 55.3429 36.4004 55.3429 36.4576 55.5143C36.4576 55.5143 38.2862 63.6286 39.829 63.6286H39.8862H39.9433C41.4862 63.6286 43.3147 55.5143 43.3147 55.5143C43.3719 55.3429 43.5433 55.3429 43.6004 55.5143C43.6004 55.5143 44.4004 58.2 45.2004 58.2C46.0004 58.2 47.6004 57 47.6004 54.1429C47.6004 52.9429 47.429 51.8 47.3147 50.8286C47.3719 50.1429 47.1433 48.0857 47.0862 47.9143Z" fill="#3C0079"/>
<path d="M57.429 35.9716L51.429 32.3145C51.429 32.7716 51.429 33.2859 51.429 33.8002C51.2576 36.7145 50.8004 39.5145 50.1719 41.9145L54.8004 44.7145C56.229 45.6287 58.1147 44.6573 58.229 42.943L58.5147 38.0859C58.5719 37.2287 58.1719 36.4287 57.429 35.9716Z" fill="#3C0079"/>
<path d="M28.5716 32.3145L22.5716 35.9716C21.8287 36.4287 21.4287 37.2287 21.4859 38.0287L21.7716 42.8859C21.8859 44.6002 23.7716 45.5716 25.2001 44.6573L29.8287 41.8573C29.2573 39.4573 28.8001 36.6573 28.5716 33.743C28.5716 33.2859 28.5716 32.7716 28.5716 32.3145Z" fill="#3C0079"/>
</svg>
