<svg width="138" height="172" viewBox="0 0 138 172" fill="none" xmlns="http://www.w3.org/2000/svg">
<g opacity="0.5">
<path d="M11.8997 0.933338C8.29974 2.13334 6.56641 5.73334 6.56641 11.3333C6.56641 17.8667 12.4331 28.2667 24.2997 42.6667C34.6997 55.4667 36.9664 55.3333 42.4331 42.1333C44.6997 36.8 47.7664 27.3333 49.3664 21.0667C52.0331 10.6667 52.0331 9.60001 50.1664 4.93334C48.2997 0.53334 47.4997 3.8147e-06 43.2331 3.8147e-06C38.2997 3.8147e-06 32.8331 4.26667 31.2331 9.46667C30.0331 12.9333 28.5664 12.6667 26.8331 8.66667C25.3664 5.46667 17.8997 -0.133327 15.2331 0.133339C14.5664 0.133339 12.9664 0.53334 11.8997 0.933338ZM22.8331 16.8C27.2331 26 28.8331 28 30.9664 27.7333C32.9664 27.4667 34.1664 25.3333 35.8997 19.3333C38.2997 10.2667 40.6997 5.33334 42.5664 5.33334C45.7664 5.33334 43.0997 20.6667 37.0997 36.6667L34.1664 44.5333L28.2997 38C18.8331 27.2 10.8331 9.46667 14.1664 6.26667C16.1664 4.13334 17.6331 5.86667 22.8331 16.8Z" fill="#3C0079"/>
<path d="M23.1013 80.6665C21.5013 83.0665 21.1013 85.5998 21.6346 89.7332L22.4346 95.4665L14.4346 94.9332C7.50125 94.3999 6.03459 94.6665 3.10125 97.4665C-3.16541 103.333 0.301253 111.467 11.3679 117.067C17.1013 119.867 30.8346 123.333 42.9679 124.667L50.5679 125.6V121.867C50.5679 117.333 46.3013 99.1999 43.2346 90.6665C38.8346 78.2665 28.1679 72.9332 23.1013 80.6665ZM37.7679 97.0665C39.6346 102.667 41.6346 110.133 42.0346 113.6C42.8346 119.733 42.8346 120 39.5013 120C34.3013 120 18.4346 114.8 12.9679 111.333C6.96792 107.333 5.50125 103.467 8.70125 99.8665C11.6346 96.5332 12.8346 96.6665 20.4346 100.667C23.9013 102.533 27.9013 104 29.5013 104C31.7679 104 32.0346 103.467 31.3679 100.267C30.9679 98.2665 30.1679 93.0665 29.7679 88.6665L29.1013 80.6665L31.7679 83.7332C33.2346 85.3332 35.9013 91.3332 37.7679 97.0665Z" fill="#3C0079"/>
<path d="M115.1 130.8C113.633 132.533 112.566 135.467 112.566 138.667C112.566 143.6 112.433 143.867 109.233 142.933C103.233 141.333 98.1664 142.133 95.6331 145.333C88.5664 154 98.2997 162.533 122.433 168.8C128.7 170.4 134.566 171.467 135.5 171.067C137.9 170.133 137.766 150.267 135.233 141.733C131.766 130 121.1 124.267 115.1 130.8ZM128.433 146.667C129.633 151.733 130.566 158.267 130.566 161.333C130.566 166.533 130.433 166.667 126.966 165.867C118.966 164 108.966 159.6 105.366 156.533C97.2331 149.733 100.566 142.8 109.233 148.4C117.233 153.733 118.966 154.4 120.833 153.733C121.9 153.333 122.433 152.133 121.9 150.8C120.433 146.933 119.5 136.267 120.433 133.733C121.366 131.467 121.633 131.6 123.9 134.4C125.233 136 127.366 141.6 128.433 146.667Z" fill="#3C0079"/>
</g>
</svg>
