<svg viewBox="0 0 224 260" preserveAspectRatio="none" fill="none" xmlns="http://www.w3.org/2000/svg">
<path d="M105.248 2.73798C93.6497 8.12689 84.2777 22.1849 80.4118 39.8746C77.7173 52.4097 77.9516 76.7769 80.9975 92.1236C85.4492 114.382 95.6413 138.749 109.582 160.774C126.335 187.015 153.162 218.529 158.082 217.592C159.957 217.24 160.191 215.6 160.425 200.253C160.66 182.329 162.183 173.543 167.454 159.602C171.437 148.941 175.772 141.561 189.947 121.88C204.942 101.027 208.926 94.8181 214.08 84.626C226.615 59.5558 226.85 38.1173 214.549 28.8625C202.365 19.6076 186.081 23.7079 170.969 39.8746C166.869 44.2092 161.363 51.2382 158.785 55.6899C153.513 64.359 153.631 64.359 151.405 52.0582C149.413 39.9917 144.962 25.348 141.096 17.7332C133.012 1.80078 119.423 -3.93959 105.248 2.73798ZM126.335 7.89259C135.472 14.2187 144.259 39.0546 147.305 67.2878C148.476 77.7141 148.945 79.0028 150.936 79.0028C152.576 79.0028 154.216 77.1284 156.559 72.5595C167.103 51.5896 178.349 38.0002 190.064 31.7912C197.796 27.5738 202.834 27.1052 207.754 30.034C211.737 32.377 216.54 40.8118 217.595 47.4894C219.703 60.1416 210.449 82.7516 192.993 107.119C165.697 145.31 159.02 157.962 155.622 177.526C154.685 183.149 153.865 192.17 153.865 197.676V207.751L149.062 203.182C142.033 196.27 128.209 178.932 120.126 166.748C105.248 144.373 94.3526 120.357 88.4951 97.3954C85.8007 86.3832 85.4492 82.5173 85.3321 65.5305C85.3321 44.5606 86.7379 36.9458 92.7125 24.7622C99.0386 11.7585 110.285 2.62082 118.134 4.02663C120.126 4.37808 123.757 6.13533 126.335 7.89259Z" fill="#3C0079"/>
<path d="M108.177 31.7913C102.437 41.2805 100.562 48.0752 100.562 60.8446C100.562 75.8398 103.257 82.7517 107.826 79.8229C108.763 79.2371 108.646 76.8941 107.24 70.8023C104.78 59.5559 106.42 48.1923 112.043 37.2974C114.386 32.9628 115.909 29.0968 115.558 28.7454C113.683 26.9881 110.286 28.3939 108.177 31.7913Z" fill="#3C0079"/>
<path d="M112.159 110.516C110.87 113.914 112.159 116.491 115.205 116.491C117.665 116.491 118.134 115.905 118.134 112.976C118.134 110.165 117.548 109.345 115.439 109.11C113.916 108.876 112.628 109.462 112.159 110.516Z" fill="#3C0079"/>
<path d="M29.685 155.385C26.8734 156.439 22.5388 160.774 20.5472 164.523C17.7356 170.029 18.2042 181.158 21.8359 188.89L24.7646 195.333L18.0871 196.622C10.4723 198.145 4.84911 201.191 2.0375 205.525C-0.774104 209.86 -0.656953 217.006 2.2718 220.989C6.72351 226.846 10.9409 228.487 25.2332 229.541C39.9942 230.595 48.8976 233.173 56.8638 238.679C62.7213 242.662 70.4532 250.745 73.6163 256.251C75.1393 258.711 76.7794 260 78.5366 260C81.8168 260 81.934 258.126 79.3567 239.85C71.6247 184.555 56.1609 154.213 35.8939 154.682C33.4338 154.682 30.6222 155.033 29.685 155.385ZM42.1029 160.305C50.0691 163.937 56.0438 173.66 62.2527 193.224C66.2358 205.877 71.2733 227.901 72.5619 238.327L73.382 245.239L67.6416 240.202C57.0981 230.947 46.2031 227.081 26.2876 225.558C14.5726 224.621 8.94937 222.512 7.42641 218.412C3.32615 207.634 10.3552 200.253 24.8818 200.136C32.6137 200.019 35.6596 198.145 32.4966 195.45C29.2164 192.756 25.9362 184.79 25.3504 177.878C24.4132 167.92 29.5678 158.431 36.1282 158.196C36.8311 158.196 39.5256 159.134 42.1029 160.305Z" fill="#3C0079"/>
</svg>
