<svg width="353" height="385" viewBox="0 0 353 385" fill="none" xmlns="http://www.w3.org/2000/svg">
<path d="M52.6667 4.40024C32.9333 14.6669 18.2667 28.9336 9.2 47.0669C2.4 60.6669 0 71.4669 0 87.3336C0.266667 123.734 16.1333 150.534 46 164.667C65.0667 173.6 85.4667 178.134 125.067 182C164.933 185.867 190.267 191.734 206.4 200.667C230.133 213.734 243.733 236.134 242.8 260.534L242.4 270.934L232.4 273.467C211.867 278.667 195.733 289.734 192.4 300.934C190.933 305.734 191.067 307.067 193.2 311.467C196.933 318.934 201.867 322 210.133 321.867C218.533 321.734 224.267 318.934 231.733 311.2C239.067 303.734 243.467 296.134 247.067 284.934L250 276H258.267C282.4 276 310.933 291.2 326.667 312.4C342.133 333.2 348.8 360 343.6 380.534C343.067 382.8 343.6 383.867 345.2 384.534C349.2 386 351.2 382.267 352.267 371.867C353.333 358.667 351.733 345.334 347.467 334.8C332.667 297.6 297.467 272.4 257.333 270.267L251.067 270L250.4 258C248.533 217.334 219.733 191.867 164.8 182.667C156.133 181.2 138.533 178.8 125.733 177.334C96 173.867 76.5333 170.267 62.2667 165.334C26 153.067 7.06667 126.4 7.06667 87.4669C7.06667 54.0002 26.2667 23.7336 56.5333 9.06689C65.6 4.6669 67.6 2.40024 63.6 0.800232C62.4 0.400238 61.4667 0.000244141 61.3333 0.000244141C61.2 0.000244141 57.3333 2.00024 52.6667 4.40024ZM240.933 280.934C239.467 287.734 232.8 300.667 227.867 306.267C222 312.934 212.4 318 207.6 316.8C198 314.267 196 303.467 203.733 294.934C210.667 287.2 229.467 277.867 238.8 277.467C241.333 277.334 241.733 277.867 240.933 280.934Z" fill="#3C0079"/>
</svg>
