<svg width="192" height="185" viewBox="0 0 192 185" fill="none" xmlns="http://www.w3.org/2000/svg">
<path d="M96 2.90372C92.5333 4.77037 88.4 8.37038 86 11.7037C82.5333 16.7704 82 18.9037 81.4667 28.1037C81.0667 37.8371 81.3333 39.5704 85.2 47.3037C92.6667 62.3704 108.267 72.9037 129.467 76.9037C135.6 78.1037 140.8 79.1704 141.067 79.3037C141.733 79.837 135.6 96.9037 132.667 102.637C122 123.57 100.267 141.97 82.6667 144.77C77.3333 145.704 77.0667 145.57 78 142.77C79.7333 137.17 79.0667 121.837 76.8 114.904C74.1333 107.17 66.1333 98.1037 59.3333 95.1704C38.6667 86.637 26.4 107.97 39.3333 130.104C43.7333 137.57 53.2 145.97 59.4667 147.837C62.2667 148.77 65.4667 149.704 66.4 150.104C70.4 151.304 56.5333 169.037 46.4 175.437C33.4667 183.57 22.4 182.504 11.7333 171.837C5.46667 165.57 0 163.304 0 167.17C0 170.904 10.2667 179.704 18.1333 182.637C36.4 189.437 58.8 179.437 70.6667 158.904C75.2 151.17 75.6 150.904 82.8 149.437C93.2 147.304 107.333 140.237 116.933 132.237C130.133 121.17 142.667 101.57 146.8 85.1704C148.4 78.9037 148.667 78.637 153.2 78.637C160.267 78.5037 180 73.9704 189.333 70.237C208.8 62.3704 226.267 47.5704 234.4 32.5037C236.667 27.9704 238.667 23.8371 238.667 23.437C238.667 23.037 237.2 22.637 235.467 22.637C233.067 22.637 231.2 24.5037 227.2 31.437C220.933 42.1037 207.2 55.437 195.733 61.7037C185.067 67.7037 169.6 72.7704 158.267 73.9704L149.467 74.9037L150.267 65.1704C152.133 39.7037 138.8 10.1037 122 2.50371C114.4 -0.962952 103.333 -0.82962 96 2.90372ZM118.267 6.77037C127.467 11.1704 136.533 25.037 140.667 40.9037C142.933 49.3037 143.333 72.637 141.467 73.9704C139.2 75.3037 122 71.037 114.667 67.3037C101.067 60.3704 89.6 46.5037 87.4667 34.237C86.1333 26.9037 89.6 16.237 94.9333 11.037C102.667 3.57037 109.067 2.37038 118.267 6.77037ZM59.7333 101.304C62.8 103.437 66.5333 107.837 68.1333 110.904C71.4667 117.437 72.9333 132.637 71.0667 139.97C70 143.97 69.2 144.637 66 144.37C56.8 143.704 45.4667 131.17 42.8 118.77C40.5333 107.97 44.6667 97.3037 51.3333 97.3037C52.9333 97.3037 56.8 99.037 59.7333 101.304Z" fill="#3C0079"/>
</svg>
