<svg width="125" height="125" viewBox="0 0 125 125" fill="none" xmlns="http://www.w3.org/2000/svg">
<rect width="125" height="125" rx="62.5" fill="#D7D7D7"/>
<path d="M62.4995 60.1322C71.1336 60.1322 78.133 53.1329 78.133 44.4987C78.133 35.8646 71.1336 28.8652 62.4995 28.8652C53.8653 28.8652 46.866 35.8646 46.866 44.4987C46.866 53.1329 53.8653 60.1322 62.4995 60.1322Z" fill="white"/>
<path d="M62.5 65.1572C43.9982 65.1572 28.9996 74.964 28.9996 87.0613C28.9996 99.1586 96.0004 99.1586 96.0004 87.0613C96.0004 74.9641 81.0018 65.1572 62.5 65.1572Z" fill="white"/>
<rect x="81" y="81" width="44" height="44" rx="22" fill="#3C0079"/>
<path d="M95 95H98L100 93H106L108 95H111C111.53 95 112.039 95.2107 112.414 95.5858C112.789 95.9609 113 96.4696 113 97V109C113 109.53 112.789 110.039 112.414 110.414C112.039 110.789 111.53 111 111 111H95C94.4696 111 93.9609 110.789 93.5858 110.414C93.2107 110.039 93 109.53 93 109V97C93 96.4696 93.2107 95.9609 93.5858 95.5858C93.9609 95.2107 94.4696 95 95 95ZM103 98C101.674 98 100.402 98.5268 99.4645 99.4645C98.5268 100.402 98 101.674 98 103C98 104.326 98.5268 105.598 99.4645 106.536C100.402 107.473 101.674 108 103 108C104.326 108 105.598 107.473 106.536 106.536C107.473 105.598 108 104.326 108 103C108 101.674 107.473 100.402 106.536 99.4645C105.598 98.5268 104.326 98 103 98ZM103 100C103.796 100 104.559 100.316 105.121 100.879C105.684 101.441 106 102.204 106 103C106 103.796 105.684 104.559 105.121 105.121C104.559 105.684 103.796 106 103 106C102.204 106 101.441 105.684 100.879 105.121C100.316 104.559 100 103.796 100 103C100 102.204 100.316 101.441 100.879 100.879C101.441 100.316 102.204 100 103 100Z" fill="#F8FAFC"/>
</svg>
