<svg width="35" height="28" viewBox="0 0 35 28" fill="none" xmlns="http://www.w3.org/2000/svg">
<path id="&#226;&#128;&#157;" d="M0.8 27.2006L6.08 8.00061L7.84 15.2806C5.54667 15.2806 3.65333 14.6139 2.16 13.2806C0.72 11.8939 0 10.0273 0 7.68061C0 5.38728 0.746667 3.54728 2.24 2.16061C3.73333 0.720611 5.57333 0.000610352 7.76 0.000610352C10 0.000610352 11.84 0.720611 13.28 2.16061C14.72 3.54728 15.44 5.38728 15.44 7.68061C15.44 8.37395 15.3867 9.06728 15.28 9.76061C15.2267 10.4006 15.04 11.1739 14.72 12.0806C14.4533 12.9873 14 14.1873 13.36 15.6806L8.72 27.2006H0.8ZM19.68 27.2006L24.96 8.00061L26.72 15.2806C24.4267 15.2806 22.5333 14.6139 21.04 13.2806C19.6 11.8939 18.88 10.0273 18.88 7.68061C18.88 5.38728 19.6267 3.54728 21.12 2.16061C22.6133 0.720611 24.4533 0.000610352 26.64 0.000610352C28.88 0.000610352 30.72 0.720611 32.16 2.16061C33.6 3.54728 34.32 5.38728 34.32 7.68061C34.32 8.37395 34.2667 9.06728 34.16 9.76061C34.1067 10.4006 33.92 11.1739 33.6 12.0806C33.3333 12.9873 32.88 14.1873 32.24 15.6806L27.6 27.2006H19.68Z" fill="#2B2B33"/>
</svg>
