<svg width="337" height="337" viewBox="0 0 337 337" fill="none" xmlns="http://www.w3.org/2000/svg">
<g id="arrow, hand drawn, scribble, doodle, 10" clip-path="url(#clip0_1_323)">
<path id="Vector" d="M95.7763 158.753C101.392 162.739 107.166 166.527 113.148 169.992C119.135 173.47 125.326 176.586 131.687 179.323C138.463 182.236 145.442 184.653 152.568 186.553C162.116 189.152 171.976 190.419 181.87 190.318C186.855 190.249 191.823 189.74 196.718 188.795C199.251 188.329 201.739 187.648 204.156 186.758C206.736 185.818 209.144 184.457 211.281 182.732C212.45 181.777 213.47 180.652 214.306 179.394C215.247 177.99 215.841 176.381 216.038 174.702C216.226 172.955 215.941 171.19 215.214 169.591C214.54 168.116 213.576 166.793 212.378 165.701C211.277 164.686 210.038 163.832 208.697 163.166C207.445 162.553 206.139 162.058 204.795 161.689C202.315 160.98 199.78 160.479 197.217 160.189C192.151 159.612 187.03 159.72 181.993 160.511C176.936 161.303 172.02 162.82 167.396 165.016C161.631 167.735 156.483 171.604 152.269 176.386C151.706 177.046 151.184 177.741 150.708 178.467C150.215 179.216 149.785 180.005 149.422 180.826C148.652 182.483 148.175 184.262 148.015 186.082C147.86 187.931 148.056 189.793 148.591 191.569C149.106 193.261 149.867 194.869 150.851 196.338C152.711 199.051 155.01 201.434 157.653 203.392C158.903 204.354 160.202 205.25 161.546 206.076C162.214 206.486 162.885 206.886 163.568 207.264C164.251 207.647 164.909 207.978 165.581 208.338C170.923 211.164 176.445 213.636 182.112 215.739C204.839 224.069 229.286 226.593 253.236 223.083C254.135 222.969 255.028 222.806 255.923 222.653C256.817 222.493 257.715 222.354 258.605 222.172C260.385 221.801 262.169 221.454 263.928 221.006C267.462 220.181 270.931 219.148 274.33 218.054C277.039 217.173 279.691 216.125 282.271 214.917C283.31 214.414 284.225 213.952 285.022 213.512C285.811 213.054 286.488 212.632 287.063 212.246C288.739 211.119 288.561 210.758 286.866 211.086C286.441 211.168 285.922 211.294 285.313 211.462C284.707 211.635 284.006 211.836 283.209 212.064C282.416 212.293 281.538 212.562 280.576 212.87C279.607 213.159 278.551 213.469 277.42 213.824C271.442 215.649 265.368 217.144 259.226 218.304C245.193 220.958 230.829 221.386 216.663 219.575C202.548 217.821 188.809 213.796 175.979 207.656C175.104 207.225 174.225 206.792 173.342 206.357C172.473 205.897 171.601 205.435 170.728 204.972C169.848 204.523 169.001 204.009 168.136 203.529C167.273 203.041 166.406 202.562 165.608 202.063C162.461 200.192 159.603 197.873 157.124 195.178C155.314 193.14 154.037 190.811 153.742 188.455C153.603 187.267 153.699 186.064 154.023 184.912C154.193 184.312 154.414 183.727 154.683 183.164C154.94 182.59 155.252 182.041 155.612 181.526C155.988 180.982 156.398 180.463 156.839 179.972L158.326 178.407C158.851 177.909 159.371 177.405 159.903 176.914C160.459 176.448 160.996 175.961 161.565 175.51C163.847 173.695 166.311 172.121 168.917 170.813C174.172 168.19 179.866 166.559 185.713 166.003C188.642 165.725 191.588 165.688 194.523 165.893C197.423 166.081 200.296 166.559 203.1 167.32L203.864 167.546L204.246 167.66L204.588 167.777C205.038 167.931 205.478 168.11 205.908 168.313C206.734 168.699 207.506 169.191 208.205 169.778C208.837 170.304 209.366 170.942 209.767 171.659C209.945 171.977 210.082 172.317 210.172 172.67C210.266 173 210.311 173.342 210.306 173.684C210.31 174.031 210.263 174.377 210.168 174.71C210.073 175.073 209.935 175.423 209.758 175.754C209.34 176.51 208.806 177.195 208.175 177.785C207.466 178.451 206.691 179.043 205.863 179.551C204.996 180.088 204.092 180.561 203.156 180.965C201.183 181.794 199.138 182.441 197.047 182.896C195.977 183.142 194.889 183.358 193.784 183.555C192.688 183.746 191.588 183.917 190.484 184.067C186.048 184.64 181.574 184.871 177.102 184.757C169.074 184.54 161.099 183.394 153.335 181.342C145.524 179.275 137.913 176.516 130.593 173.095C126.919 171.392 123.305 169.558 119.751 167.593C117.98 166.606 116.216 165.603 114.484 164.541L111.88 162.958L109.306 161.322C107.581 160.246 105.91 159.081 104.211 157.961C102.545 156.789 100.854 155.654 99.212 154.445C95.8928 152.079 92.6529 149.594 89.4297 147.085C79.1795 139.029 69.6487 131.187 60.5614 124.86C56.3861 121.948 55.6848 123.229 59.7944 127.44C65.6803 133.329 72.0224 139.35 78.6035 145.087C84.0056 149.814 89.8756 154.317 95.7827 158.634C95.7791 158.673 95.7763 158.71 95.7763 158.753Z" fill="#3C0079"/>
<path id="Vector_2" d="M102.351 135.969C98.1 135.427 93.8974 134.558 89.7809 133.367C88.696 133.021 87.6033 132.684 86.5184 132.32C85.4444 131.919 84.3746 131.504 83.3208 131.06C78.7921 129.054 74.3817 126.681 69.9778 124.219L63.3719 120.473C61.1674 119.22 58.963 117.938 56.7193 116.736L56.6863 116.718C55.9143 116.305 55.0098 116.215 54.1716 116.469C53.3335 116.722 52.6304 117.298 52.217 118.07C51.9589 118.559 51.8262 119.104 51.8308 119.656C51.8354 120.209 51.9771 120.752 52.2433 121.236L55.7313 127.498C59.4533 134.269 63.1824 141.044 66.9634 147.808C70.7468 154.571 74.5791 161.322 78.6065 168.001C79.8523 170.005 81.2065 171.941 82.663 173.798C84.0167 175.583 85.3893 176.424 86.5954 176.695C88.3576 177.084 88.7642 175.252 87.4024 172.459C86.4902 170.624 85.4698 168.844 84.3464 167.131C79.3378 159.183 74.8457 150.921 70.898 142.396C69.7955 140.041 68.7325 137.543 67.3661 135.411C63.8256 129.881 60.8455 124 57.721 118.209L53.7212 122.23C55.0526 122.975 56.3936 123.698 57.7575 124.377C63.1266 127.079 68.3923 130.094 73.916 132.715C78.8627 135.107 83.9871 137.112 89.2433 138.712C94.5176 140.26 99.9169 141.345 105.38 141.954C106.463 142.07 107.533 142.159 108.586 142.212C109.64 142.232 110.677 142.212 111.694 142.153C113.664 142.051 115.614 141.707 117.5 141.129C118.341 140.868 118.745 140.418 118.707 139.946C118.668 139.486 118.191 138.959 117.261 138.676C115.94 138.351 114.583 138.102 113.226 137.826C111.871 137.542 110.502 137.297 109.138 137.075C108.026 136.855 106.893 136.702 105.752 136.568L104.895 136.469L104.047 136.339C103.482 136.25 102.917 136.16 102.353 136.071L102.351 135.969Z" fill="#3C0079"/>
</g>
<defs>
<clipPath id="clip0_1_323">
<rect width="240" height="240" fill="white" transform="matrix(0.795643 -0.605766 -0.605766 -0.795643 145.384 336.338)"/>
</clipPath>
</defs>
</svg>
