<svg width="16" height="16" viewBox="0 0 16 16" fill="none" xmlns="http://www.w3.org/2000/svg">
<path id="Vector" fill-rule="evenodd" clip-rule="evenodd" d="M5.75 0.952334C5.75 0.53155 5.41422 0.19043 5 0.19043C4.58579 0.19043 4.25 0.53155 4.25 0.952334V1.33787C3.87804 1.34378 3.54753 1.35729 3.25642 1.38819C2.71685 1.44547 2.22771 1.5691 1.7927 1.87495C1.4959 2.08363 1.23862 2.345 1.0332 2.64651C0.732126 3.08842 0.610431 3.58532 0.554053 4.13345C0.504538 4.61483 0.500368 5.20223 0.500031 5.90472L0.500001 6.02161C0.500001 6.04825 0.500001 6.07505 0.500001 6.10201V10.5299C0.499978 11.5616 0.499956 12.4124 0.589063 13.0857C0.682626 13.7926 0.886603 14.4169 1.37869 14.9168C1.87076 15.4167 2.48533 15.624 3.18121 15.719C3.84402 15.8096 4.68147 15.8095 5.69704 15.8095H10.3029C11.3185 15.8095 12.156 15.8096 12.8188 15.719C13.5147 15.624 14.1292 15.4167 14.6213 14.9168C15.1134 14.4169 15.3174 13.7926 15.411 13.0857C15.5001 12.4124 15.5 11.5616 15.5 10.5299V6.10201C15.5 6.07872 15.5 6.05548 15.5 6.03243V5.90472C15.4996 5.20223 15.4955 4.61483 15.4459 4.13345C15.3896 3.58532 15.2679 3.08842 14.9668 2.64651C14.7614 2.345 14.5041 2.08363 14.2073 1.87495C13.7723 1.5691 13.2832 1.44547 12.7436 1.38819C12.4525 1.35729 12.122 1.34378 11.75 1.33787V0.952334C11.75 0.53155 11.4142 0.19043 11 0.19043C10.5858 0.19043 10.25 0.53155 10.25 0.952334V1.33329H5.75V0.952334ZM13.9999 5.90472C13.9994 5.19118 13.9947 4.68649 13.9541 4.29182C13.9105 3.86796 13.8322 3.65876 13.7334 3.51371C13.6307 3.36296 13.5021 3.23227 13.3537 3.12792C13.2109 3.02753 13.0049 2.94804 12.5877 2.90375C12.3545 2.879 12.0823 2.86737 11.75 2.86191V3.23805C11.75 3.65883 11.4142 3.99995 11 3.99995C10.5858 3.99995 10.25 3.65883 10.25 3.23805V2.8571H5.75V3.23805C5.75 3.65883 5.41422 3.99995 5 3.99995C4.58579 3.99995 4.25 3.65883 4.25 3.23805V2.86191C3.91772 2.86737 3.6455 2.879 3.4123 2.90375C2.99507 2.94804 2.78914 3.02753 2.64635 3.12792C2.49796 3.23227 2.36931 3.36296 2.2666 3.51371C2.16778 3.65876 2.08953 3.86796 2.04593 4.29182C2.00533 4.68649 2.00061 5.19118 2.00007 5.90472H13.9999ZM2 7.42852V10.4761C2 11.5752 2.0016 12.3228 2.07569 12.8827C2.14689 13.4206 2.27242 13.6697 2.43934 13.8393C2.60627 14.0089 2.85154 14.1365 3.38107 14.2088C3.93219 14.2841 4.66814 14.2857 5.75 14.2857H10.25C11.3319 14.2857 12.0678 14.2841 12.6189 14.2088C13.1484 14.1365 13.3937 14.0089 13.5606 13.8393C13.7276 13.6697 13.8531 13.4206 13.9243 12.8827C13.9984 12.3228 14 11.5752 14 10.4761V7.42852H2Z" fill="#969696"/>
</svg>
