<svg width="16" height="16" viewBox="0 0 16 16" fill="none" xmlns="http://www.w3.org/2000/svg">
<path d="M14.705 3.49414L9.78901 1.15214C8.70689 0.505763 7.36001 0.494294 6.26701 1.12214L1.2957 3.49414C1.27704 3.50348 1.2577 3.51348 1.2397 3.52414C0.0599504 4.1987 -0.349612 5.70192 0.32495 6.88167C0.553607 7.28161 0.88995 7.60929 1.2957 7.82748L2.66704 8.48083V11.7475C2.66786 13.2082 3.61833 14.4987 5.01304 14.9328C5.98364 15.2136 6.99004 15.3511 8.00039 15.3408C9.01058 15.3521 10.017 15.2158 10.9877 14.9362C12.3825 14.5021 13.3329 13.2115 13.3337 11.7508V8.47948L14.6671 7.84214V13.3408C14.6671 13.709 14.9655 14.0075 15.3337 14.0075C15.7019 14.0075 16.0004 13.709 16.0004 13.3408V5.34079C16.0048 4.55795 15.3867 3.83476 14.705 3.49414ZM12.0004 11.7508C12.0007 12.6245 11.4338 13.3974 10.6004 13.6595C9.75517 13.901 8.87933 14.0182 8.00036 14.0075C7.12139 14.0182 6.24554 13.901 5.40036 13.6595C4.56689 13.3974 4.00001 12.6245 4.00036 11.7508V9.11617L6.2117 10.1695C6.75733 10.4935 7.38048 10.6638 8.01504 10.6622C8.61904 10.6665 9.21289 10.5065 9.73304 10.1995L12.0004 9.11614V11.7508ZM14.1337 6.62414L9.1057 9.02414C8.40464 9.43236 7.53567 9.42079 6.8457 8.99414L1.92636 6.65414C1.37801 6.35845 1.1732 5.67423 1.46889 5.12592C1.56889 4.94048 1.71883 4.78676 1.9017 4.68214L6.89836 2.29548C7.59964 1.88817 8.46814 1.8997 9.15836 2.32548L14.0744 4.66748C14.4359 4.86823 14.6621 5.24733 14.667 5.66083C14.6677 6.05251 14.466 6.41676 14.1337 6.62414Z" fill="#969696"/>
</svg>
