<svg width="169" height="163" viewBox="0 0 169 163" fill="none" xmlns="http://www.w3.org/2000/svg">
<path d="M101.239 84.3947C92.1893 74.6741 83.5869 64.6182 76.3251 53.445C71.186 45.4003 66.6054 36.35 61.1312 30.7634C53.8792 23.181 42.8311 16.0713 33.9335 21.6317C30.4567 23.8044 26.9706 26.6533 23.1464 30.6517C-45.3378 101.266 53.8694 210.317 130.062 138.585C138.316 130.826 132.005 115.491 124.041 107.435C116.353 99.6563 108.246 91.8936 101.239 84.3947Z" fill="#DE814B"/>
<path d="M130.764 137.912C130.296 138.372 129.794 138.806 129.28 139.214C58.7328 195.229 -38.6263 104.566 23.1489 30.5392C24.1544 29.4219 25.2715 28.1929 26.3887 27.0755C40.5772 12.9973 56.3297 6.40515 71.747 5.39957C73.3111 5.28784 74.54 6.51689 74.6517 7.9694C74.8752 17.1314 80.7963 23.2767 89.5104 24.5057C90.8511 24.7292 91.6331 25.9582 91.298 27.299C90.4042 30.204 90.069 33.3325 90.069 36.5728C90.4042 52.9973 104.034 66.5169 120.457 66.6286C123.808 66.6286 127.048 66.1817 130.176 65.1761C131.405 64.7292 132.746 65.5113 132.969 66.8521C134.98 77.8018 144.923 75.7906 149.616 74.2264C150.956 73.7795 152.409 74.5616 152.744 75.9024C161.093 106.35 135.385 133.364 130.764 137.912Z" fill="#F6B059"/>
<path d="M82.136 67.9708C82.136 76.239 75.4328 81.8255 67.1655 81.8255C58.8983 81.8255 52.1951 76.239 52.1951 67.9708C52.1951 59.7026 58.8983 52.9987 67.1655 52.9987C75.4328 52.9987 82.136 59.5909 82.136 67.9708Z" fill="#6D420D"/>
<path d="M129.167 104.06C129.167 110.428 124.027 115.568 117.659 115.568C111.291 115.568 106.934 111.769 106.934 105.4C106.934 99.0318 111.291 92.4396 117.659 92.4396C124.027 92.4396 129.167 97.691 129.167 104.06Z" fill="#6D420D"/>
<path d="M43.1463 89.9827C43.1463 94.8989 39.5713 97.6922 34.6556 97.6922C29.7399 97.6922 25.4946 94.8989 25.4946 89.9827C25.4946 85.0665 29.4048 81.1558 34.3204 81.1558C39.2361 81.1558 43.1463 85.0665 43.1463 89.9827Z" fill="#6D420D"/>
<path d="M70.1777 119.925C70.1777 122.159 68.3902 123.947 66.1558 123.947C63.9214 123.947 62.1339 122.159 62.1339 119.925C62.1339 117.69 63.9214 115.902 66.1558 115.902C68.3902 115.902 70.1777 117.69 70.1777 119.925Z" fill="#6D420D"/>
<path d="M42.9194 42.7192C45.3875 42.7192 47.3882 40.7183 47.3882 38.2499C47.3882 35.7816 45.3875 33.7807 42.9194 33.7807C40.4514 33.7807 38.4507 35.7816 38.4507 38.2499C38.4507 40.7183 40.4514 42.7192 42.9194 42.7192Z" fill="#6D420D"/>
<path d="M123.691 11.4313C124.138 16.7944 119.445 21.152 113.189 21.152C106.933 21.152 102.129 16.3475 102.464 10.4257C102.799 4.50392 107.491 0.146387 112.966 0.705046C118.44 1.2637 123.244 5.95644 123.691 11.4313Z" fill="#F6B059"/>
<path d="M115.652 19.0291C116.877 19.0291 117.653 20.4593 116.467 20.7638C115.481 21.0169 114.422 21.152 113.306 21.152C107.05 21.152 102.246 16.3475 102.581 10.5375C102.649 9.44604 102.863 8.40666 103.201 7.44158C103.644 6.17356 104.991 7.07278 104.927 8.41457C104.704 14.1129 109.508 18.9174 115.652 19.0291Z" fill="#DE814B"/>
<path d="M123.136 41.8227C122.912 45.3981 119.896 48.4149 116.433 48.7501C112.969 48.9736 110.176 46.0685 110.288 42.2696C110.288 38.4708 113.305 35.3423 116.991 35.3423C120.678 35.3423 123.359 38.2473 123.136 41.8227Z" fill="#F6B059"/>
<path d="M117.772 47.1832C118.538 47.1194 119.081 47.9398 118.37 48.231C117.723 48.4958 117.034 48.6723 116.32 48.7475C112.857 48.9709 110.175 46.0659 110.175 42.267C110.175 41.5347 110.295 40.8143 110.516 40.1335C110.763 39.3686 111.628 39.8988 111.628 40.7028C111.516 44.5017 114.309 47.4067 117.772 47.1832Z" fill="#DE814B"/>
<path d="M168.825 44.6174C168.49 48.8632 165.027 52.4386 160.893 52.6621C156.871 52.8855 153.631 49.5336 153.631 45.0643C153.743 40.595 157.206 37.0196 161.563 37.0196C165.921 37.0196 169.16 40.4833 168.825 44.6174Z" fill="#F6B059"/>
<path d="M162.569 50.9889C163.314 50.9392 163.935 51.9032 163.238 52.171C162.494 52.4566 161.706 52.6279 160.893 52.6649C156.871 52.8883 153.631 49.5364 153.631 45.0671C153.631 44.2259 153.763 43.4177 154.003 42.6563C154.222 41.9615 155.307 42.551 155.307 43.2794C155.307 47.8604 158.547 51.2124 162.569 50.9889Z" fill="#DE814B"/>
</svg>
