<svg width="16" height="24" viewBox="0 0 16 24" fill="none" xmlns="http://www.w3.org/2000/svg">
<path d="M14.1123 5.60039C13.9123 5.40042 13.641 5.28809 13.3582 5.28809C13.0753 5.28809 12.8041 5.40042 12.604 5.60039L7.71231 10.4921L2.82057 5.60039C2.62054 5.40042 2.34928 5.28809 2.06644 5.28809C1.7836 5.28809 1.51234 5.40042 1.31231 5.60039C1.11234 5.80042 1 6.07168 1 6.35452C1 6.63737 1.11234 6.90863 1.31231 7.10866L6.20404 12.0004L1.31231 16.8921C1.11234 17.0922 1 17.3634 1 17.6463C1 17.9291 1.11234 18.2004 1.31231 18.4004C1.51234 18.6004 1.7836 18.7127 2.06644 18.7127C2.34928 18.7127 2.62054 18.6004 2.82057 18.4004L7.71231 13.5087L12.604 18.4004C12.8041 18.6004 13.0753 18.7127 13.3582 18.7127C13.641 18.7127 13.9123 18.6004 14.1123 18.4004C14.3123 18.2004 14.4246 17.9291 14.4246 17.6463C14.4246 17.3634 14.3123 17.0922 14.1123 16.8921L9.22057 12.0004L14.1123 7.10866C14.3123 6.90863 14.4246 6.63737 14.4246 6.35452C14.4246 6.07168 14.3123 5.80042 14.1123 5.60039Z" fill="#969696"/>
</svg>
