<svg width="24" height="24" viewBox="0 0 24 24" fill="none" xmlns="http://www.w3.org/2000/svg">
<g clip-path="url(#clip0_3_27412)">
<path d="M18.6667 0H5.33333C2.388 0 0 2.388 0 5.33333V18.6667C0 21.612 2.388 24 5.33333 24H12.828V14.7187H9.704V11.0853H12.828V8.412C12.828 5.31333 14.7227 3.624 17.488 3.624C18.42 3.62133 19.3507 3.66933 20.2773 3.764V7.004H18.3733C16.8667 7.004 16.5733 7.716 16.5733 8.76667V11.08H20.1733L19.7053 14.7133H16.552V24H18.6667C21.612 24 24 21.612 24 18.6667V5.33333C24 2.388 21.612 0 18.6667 0Z" fill="white"/>
</g>
<defs>
<clipPath id="clip0_3_27412">
<rect width="24" height="24" fill="white"/>
</clipPath>
</defs>
</svg>
