<svg width="799" height="263" viewBox="0 0 799 263" fill="none" xmlns="http://www.w3.org/2000/svg">
<path d="M-54 23.5157C81.7775 82.2207 189.929 89.2386 323.088 61.3815C456.247 33.5244 510.453 -17.9002 797.982 15.2325" stroke="#F9EEF1" stroke-width="3"/>
<path d="M14.3471 44.8142C10.8119 48.3641 -16.2913 205.744 -16.2913 205.744L49.6991 174.978L100.37 234.144C100.37 234.144 133.365 74.397 132.187 70.847C131.009 67.2969 17.8823 41.2642 14.3471 44.8142Z" fill="#C75470" stroke="#C75470"/>
<path d="M95.8691 127.243L60.5172 155.643L35.5549 127.646C20.2357 108.713 34.758 84.647 56.766 95.6968C63.8364 99.2468 63.0106 105.538 63.8364 115.813C66.5905 105.296 73.2636 95.6968 90.9396 99.2468C99.1884 101.613 109.794 114.63 95.8691 127.243Z" fill="#F9EEF1" stroke="#F9EEF1"/>
<path d="M197.788 73.014C195.597 77.5263 220.995 235.193 220.995 235.193L273.416 184.529L340.509 223.905C340.509 223.905 319.914 62.0751 317.648 59.1038C315.383 56.1324 199.98 68.5018 197.788 73.014Z" fill="#C75470" stroke="#C75470"/>
<path d="M301.602 124.297L277.384 162.707L244.704 144.396C224.081 131.503 230.01 104 254.401 107.253C262.238 108.298 263.497 114.517 267.609 123.962C266.803 113.117 270 101.86 287.864 99.4374C296.431 98.9783 310.679 107.818 301.602 124.297Z" fill="#F9EEF1" stroke="#F9EEF1"/>
<path d="M397.175 30.5452C395.384 35.2322 434.37 190.076 434.37 190.076L482.194 135.017L552.449 168.372C552.449 168.372 517.886 8.95971 515.372 6.1979C512.857 3.43608 398.967 25.8583 397.175 30.5452Z" fill="#C75470" stroke="#C75470"/>
<path d="M505.036 72.5494L484.243 112.932L450.099 97.5515C428.436 86.5123 431.955 58.5953 456.536 59.7011C464.433 60.0563 466.226 66.1411 471.143 75.1904C469.399 64.4578 471.607 52.9629 489.193 48.9865C497.687 47.7795 512.648 55.3389 505.036 72.5494Z" fill="#F9EEF1" stroke="#F9EEF1"/>
<path d="M599.603 -4.11928C596.735 -0.00684838 597.259 159.708 597.259 159.708L656.927 117.903L717.059 167.334C717.059 167.334 721.929 4.26069 720.154 0.970074C718.38 -2.32054 602.47 -8.23171 599.603 -4.11928Z" fill="#C75470" stroke="#C75470"/>
<path d="M694.14 62.8406L664.237 96.973L634.812 73.7543C616.452 57.7802 626.592 31.5473 650.176 38.5917C657.753 40.8549 658.028 47.1947 660.618 57.1695C661.511 46.332 666.423 35.715 684.444 36.1288C692.977 37.0211 705.672 47.9905 694.14 62.8406Z" fill="#F9EEF1" stroke="#F9EEF1"/>
</svg>
