<svg width="169" height="180" viewBox="0 0 169 180" fill="none" xmlns="http://www.w3.org/2000/svg">
<path id="Vector" d="M62.1046 3.23724C57.9354 8.28424 56.3993 16.2936 56.5091 32.9706V47.7825L51.0232 42.4063C44.4402 36.1524 31.6032 27.2653 23.7036 23.5349C16.572 20.2434 7.68488 19.9143 5.05167 22.8766C2.30874 25.9487 2.74761 32.2026 6.47799 40.98C10.8667 51.6226 17.9983 60.3999 27.8729 67.2024L36.1017 72.9077L30.0672 74.7729C22.387 77.077 14.4874 82.2337 8.67234 88.4875C-3.17713 101.434 -2.84797 116.136 9.44036 121.403C14.4874 123.597 28.202 123.268 41.3681 120.744C47.5122 119.538 53.1078 118.55 53.6564 118.55C54.205 118.55 52.669 122.171 50.2552 126.669C45.2082 136.105 40.4903 153.221 40.4903 162.327C40.4903 170.117 43.1236 175.603 48.1705 178.017C52.3398 180.211 60.6783 180.65 64.9573 179.004C72.6375 176.042 79.7691 164.083 83.4995 148.174C84.7064 143.017 85.9133 138.08 86.2424 137.202C86.4619 136.324 87.7785 138.848 89.2048 142.798C94.8004 158.816 102.81 168.691 112.245 171.105C125.302 174.396 134.737 164.631 133.421 149.271C132.763 141.591 129.032 130.729 124.973 125.023C123.656 123.268 122.778 121.512 122.998 121.183C123.327 120.964 125.96 121.732 128.813 123.048C136.273 126.34 151.634 127.218 156.571 124.694C166.446 119.538 165.349 103.738 154.377 93.754C151.963 91.5596 147.245 88.4875 143.954 87.0612L138.029 84.3183L146.148 80.8073C170.505 70.1648 175.991 55.5724 158.985 46.5756C155.913 44.9298 152.841 44.4909 144.393 44.4909L133.531 44.6006L134.189 41.1994C134.628 39.4439 135.176 32.422 135.615 25.7293C136.164 14.209 136.054 13.3312 133.86 11.1369C132.653 9.92999 130.458 8.83282 129.142 8.83282C121.242 8.83282 105.553 23.3155 98.0919 37.5788L93.8129 45.5881L92.3866 37.0302C90.0825 23.0961 81.744 6.19962 75.0513 1.81093C70.6626 -1.04173 65.2864 -0.493134 62.1046 3.23724ZM73.9541 8.94255C84.1578 20.3531 89.9728 43.6132 87.0105 61.6068C86.3521 65.5566 86.2424 65.5566 80.8663 65.7761C70.9917 65.9955 66.3836 61.3874 63.6407 48.5505C61.1172 36.2621 62.7629 14.209 66.9322 6.41905C68.4682 3.56639 69.346 3.89555 73.9541 8.94255ZM129.8 24.1932C129.69 41.4189 124.643 54.6946 114.22 65.9955C105.882 75.102 104.017 75.6506 98.9696 70.8231L95.1295 67.0927L96.885 58.5347C99.5182 45.3687 105.992 33.2998 116.086 22.8766C122.888 15.9644 125.192 14.209 127.277 14.5381C129.8 14.8673 129.91 15.1964 129.8 24.1932ZM21.5093 27.4848C35.0045 33.5192 50.694 47.3436 59.9103 61.2777L66.0545 70.4939L63.7504 72.6883C61.5561 74.9923 61.1172 74.9923 53.437 73.566C41.4778 71.3717 34.5656 67.6413 24.9105 58.0959C15.2554 48.6602 9.76951 38.7856 9.76951 31.2151C9.76951 28.8014 10.0987 26.3876 10.5375 26.0584C11.8541 24.6321 16.9011 25.2904 21.5093 27.4848ZM153.719 49.4282C158.546 50.8545 162.276 55.1335 162.276 59.4125C162.276 65.7761 149.988 75.3215 136.273 79.7102C133.421 80.5879 125.192 81.6851 118.17 82.0142C107.418 82.5628 105.224 82.4531 105.224 81.1365C105.224 80.2588 106.979 78.613 109.173 77.4061C114.549 74.5535 124.973 63.1429 128.264 56.5598C129.8 53.4877 131.117 50.8545 131.227 50.6351C132.433 48.6602 148.013 47.8922 153.719 49.4282ZM88.4368 70.3842C96.3364 73.3466 100.506 81.4656 99.1891 91.2305C98.4211 96.6066 95.0198 102.861 92.0574 104.397C82.1829 109.334 79.1108 109.663 72.3083 106.152C57.4965 98.6913 60.02 76.6381 76.2582 70.8231C81.5246 68.9579 84.3772 68.8482 88.4368 70.3842ZM54.8633 78.613C57.6062 80.0393 57.7159 80.2588 57.1674 88.1584C56.6188 97.1552 58.8131 103.19 64.0796 107.359C65.6156 108.566 66.8225 109.773 66.8225 110.102C66.8225 112.296 33.6879 118.879 21.8384 118.989C11.9639 119.099 8.23347 117.124 6.36828 110.76C5.2711 107.249 5.38082 105.713 7.02658 101.324C9.65979 94.522 19.0955 84.6474 26.666 80.8073C36.1017 75.9798 47.9511 75.102 54.8633 78.613ZM139.016 89.8042C147.355 93.0957 152.292 97.1552 155.255 103.629C158.766 111.199 158.656 114.71 154.487 118.77C151.305 122.061 150.976 122.061 143.186 121.622C131.446 120.854 122.559 116.356 112.245 105.933C104.126 97.8135 104.126 97.8135 104.785 93.0957C105.224 90.4625 106.101 87.939 106.76 87.5001C107.418 87.0612 113.672 86.8418 120.584 87.0612C129.91 87.3904 134.737 88.0487 139.016 89.8042ZM121.352 130.07C129.581 145.979 130.129 157.5 122.778 164.851C111.039 176.591 92.9352 151.794 91.3991 121.842L90.8506 111.418L95.5684 108.017L100.286 104.726L108.515 112.954C114.33 118.77 118.17 123.926 121.352 130.07ZM81.9635 113.613C82.8412 114.491 79.44 140.164 77.2456 148.832C71.65 170.995 61.8852 180.869 51.7912 174.616C46.6345 171.324 45.2082 165.619 46.9637 154.976C50.0357 136.763 58.0451 120.635 66.7128 115.039C71.1015 112.296 72.4181 111.967 76.697 112.516C79.44 112.954 81.744 113.393 81.9635 113.613Z" fill="#3C0079"/>
</svg>
