<svg width="24" height="24" viewBox="0 0 24 24" fill="none" xmlns="http://www.w3.org/2000/svg">
<g clip-path="url(#clip0_3_27414)">
<path d="M6.99844 0C3.13972 0 0 3.14157 0 7.00125V17.0006C0 20.8598 3.14157 24 7.00125 24H17.0006C20.8598 24 24 20.8584 24 16.9987V6.99844C24 3.13972 20.8584 0 16.9987 0H6.99844ZM19.2 3.84C19.7299 3.84 20.16 4.27008 20.16 4.8C20.16 5.32992 19.7299 5.76 19.2 5.76C18.6701 5.76 18.24 5.32992 18.24 4.8C18.24 4.27008 18.6701 3.84 19.2 3.84ZM12 5.76C15.4416 5.76 18.24 8.5584 18.24 12C18.24 15.4416 15.4411 18.24 12 18.24C8.5584 18.24 5.76 15.4411 5.76 12C5.76 8.55888 8.5584 5.76 12 5.76ZM12 7.68C9.61392 7.68 7.68 9.61392 7.68 12C7.68 14.3861 9.61392 16.32 12 16.32C14.3861 16.32 16.32 14.3861 16.32 12C16.32 9.61392 14.3861 7.68 12 7.68Z" fill="white"/>
</g>
<defs>
<clipPath id="clip0_3_27414">
<rect width="24" height="24" fill="white"/>
</clipPath>
</defs>
</svg>
