<svg width="173" height="160" viewBox="0 0 173 160" fill="none" xmlns="http://www.w3.org/2000/svg">
<g id="Vector">
<path d="M86.3595 1.67247C85.7429 2.75158 84.9721 8.30127 84.5096 14.0051C83.7388 24.642 83.7388 24.642 87.7469 24.642C91.4467 24.642 91.755 24.0254 92.68 14.6217C93.2966 9.22621 93.4508 3.67653 92.8341 2.28911C91.9092 -0.485737 87.9011 -0.794053 86.3595 1.67247Z" fill="#3C0079"/>
<path d="M40.2661 6.45129C39.8036 7.5304 40.7286 13.2342 42.116 19.2464C44.5825 29.1125 45.1992 30.0375 49.2073 30.4999C54.1403 31.1166 53.9862 31.4249 50.5947 18.4756C47.5115 6.75961 46.2783 4.6014 43.1951 4.6014C41.9618 4.6014 40.5744 5.52635 40.2661 6.45129Z" fill="#3C0079"/>
<path d="M122.74 16.9341C118.732 24.7961 118.424 26.3377 120.428 27.1085C124.436 28.6501 127.056 26.646 131.219 18.6298C135.998 8.91787 135.998 7.68461 131.219 7.68461C128.135 7.68461 126.594 9.38035 122.74 16.9341Z" fill="#3C0079"/>
<path d="M166.367 18.0131C163.592 18.9381 154.805 33.5831 155.884 35.433C157.888 38.6703 161.433 36.8204 166.675 29.575C169.604 25.5668 172.07 21.5587 172.07 20.6338C172.07 18.4756 168.987 17.0882 166.367 18.0131Z" fill="#3C0079"/>
<path d="M14.8304 64.723C14.8304 66.5729 1.41861 144.731 0.185351 150.589C-0.431281 153.518 0.185351 153.98 6.81414 154.751C19.7634 156.293 156.502 160.918 157.581 159.839C158.197 159.222 156.656 144.423 154.189 126.849C150.181 97.7128 149.41 94.7838 146.635 94.3214C144.477 94.0131 138.003 99.1003 125.978 110.2C116.266 119.141 107.788 126.386 107.171 126.386C105.938 126.386 105.167 124.382 96.5341 94.0131C91.1385 75.2058 89.2887 71.8143 85.4347 73.2017C84.0473 73.8184 76.1852 85.226 68.0149 98.7919C59.8445 112.204 52.5991 123.303 52.1366 123.303C51.5199 123.303 44.737 109.891 37.1833 93.5506C24.3882 66.7271 22.8466 63.9523 18.9926 63.4898C16.5261 63.1815 14.8304 63.7981 14.8304 64.723ZM46.8952 132.553C47.666 133.786 49.6701 135.019 51.3658 135.327C53.9865 135.79 57.2238 131.319 69.7106 111.125C77.881 97.4045 84.9722 86.6135 85.2805 86.9218C85.5889 87.2301 89.1345 98.4836 93.1426 111.895C99.3089 132.553 100.85 136.406 103.625 136.869C105.784 137.177 112.104 132.398 124.283 121.145C140.315 106.5 142.165 105.267 142.936 108.35C144.631 114.979 149.564 154.135 148.639 154.905C148.177 155.368 130.911 155.06 110.254 154.135C89.597 153.364 58.6112 152.131 41.3455 151.514C24.234 151.051 9.8973 150.127 9.58899 149.664C9.12651 149.047 18.9926 88.9258 20.9967 80.1388C21.1508 79.6764 26.7005 90.7757 33.3293 104.804C40.1123 118.832 46.2786 131.319 46.8952 132.553Z" fill="#3C0079"/>
</g>
</svg>
