<svg width="399" height="266" viewBox="0 0 399 266" fill="none" xmlns="http://www.w3.org/2000/svg">
<path d="M339.46 255.979C352.458 238.481 404.954 167.487 394.955 167.487C384.956 167.487 262.966 202.984 258.466 211.483L279.964 220.482V225.482C279.964 226.482 283.964 225.482 284.964 225.482C285.964 225.482 336.46 256.979 339.46 255.979Z" fill="#E7E5EC"/>
<path d="M394.955 167.487C404.954 167.487 352.458 238.481 339.46 255.979C336.46 256.979 285.964 225.482 284.964 225.482M394.955 167.487C384.956 167.487 262.966 202.984 258.466 211.483L279.964 220.482M394.955 167.487L279.964 220.482M394.955 167.487L284.964 225.482M279.964 220.482C279.964 221.815 279.964 224.682 279.964 225.482C279.964 226.482 283.964 225.482 284.964 225.482" stroke="#3C0079" stroke-width="4"/>
<path d="M259.966 244.48C155.308 283.81 -72.8061 290.176 -148 1.00061" stroke="#3C0079" stroke-width="3" stroke-dasharray="16 12"/>
</svg>
