<svg width="20" height="20" viewBox="0 0 20 20" fill="none" xmlns="http://www.w3.org/2000/svg">
<g id="piggy-bank 1" clip-path="url(#clip0_1_1594)">
<path id="Vector" d="M18.6937 9.20464C18.412 8.49964 18.007 7.84131 17.5003 7.26548V4.16964C17.5003 3.65464 17.2687 3.17631 16.8637 2.85631C16.4653 2.54214 15.9562 2.42881 15.4628 2.54464C13.942 2.90714 12.8012 3.76881 12.1903 4.99964H7.72117C5.57033 4.99964 3.6395 5.96464 2.372 7.47381C1.372 7.32798 1.49284 5.83131 2.4995 5.83298C3.58867 5.82881 3.5895 4.17048 2.4995 4.16631C-0.154665 4.15798 -0.941332 7.83798 1.44283 8.92381C-0.0229985 11.9405 1.252 15.8255 4.16617 17.4338V17.4996C4.16784 20.2921 8.11617 20.9313 9.02367 18.333H10.9762C11.8837 20.933 15.832 20.2905 15.8337 17.4996V17.423C17.1337 16.6705 18.1428 15.5063 18.6937 14.128C19.3778 13.9821 20.0003 13.4213 20.0003 12.4996V10.833C20.0003 9.91131 19.377 9.35048 18.6937 9.20464ZM15.0003 10.833C13.9103 10.828 13.9103 9.17131 15.0003 9.16631C16.0903 9.17131 16.0903 10.828 15.0003 10.833ZM5.04367 3.75964C4.57534 -0.899525 11.4937 -1.35036 11.667 3.33298H7.722C6.78783 3.33298 5.88867 3.48714 5.04367 3.75964Z" fill="#C75470"/>
</g>
<defs>
<clipPath id="clip0_1_1594">
<rect width="20" height="20" fill="white"/>
</clipPath>
</defs>
</svg>
