<svg width="214" height="239" viewBox="0 0 214 239" fill="none" xmlns="http://www.w3.org/2000/svg">
<path id="Vector" d="M59.7509 215.326C69.6331 210.173 78.9321 203.972 87.4874 196.83C96.0746 189.693 103.804 181.583 110.519 172.662C114.1 167.954 117.341 162.997 120.217 157.829C123.061 152.788 125.18 147.37 126.511 141.738C128.107 134.315 127.797 126.609 125.612 119.338C123.417 112.012 119.67 105.244 114.628 99.4947C109.608 93.7741 103.356 89.2657 96.3434 86.3081C95.4908 85.9147 94.5706 85.6617 93.6855 85.3368L92.347 84.8721L91.6785 84.6389L90.9908 84.4637L88.2422 83.7604C88.0128 83.704 87.7861 83.6364 87.5546 83.589L86.8539 83.4701L85.4536 83.2306C83.5865 82.9051 81.7034 82.6787 79.8124 82.5525C78.8686 82.4649 77.9144 82.5037 76.9666 82.4708C76.0177 82.4298 75.0673 82.439 74.1194 82.4985L71.2729 82.6585C70.3257 82.7359 69.3844 82.8921 68.4402 83.0023L67.0236 83.1725C66.5514 83.2287 66.0875 83.3453 65.6189 83.4281L62.8139 83.9686C61.8877 84.1898 60.9711 84.454 60.0488 84.6925L58.6669 85.058C58.2108 85.1948 57.7636 85.362 57.3112 85.512L54.604 86.4319L51.9648 87.5323L50.6451 88.0823L49.3673 88.7223L46.8117 90.0018L44.3541 91.456L43.1259 92.1838L41.953 92.9951L39.6083 94.6185L37.3861 96.3998C37.0189 96.7001 36.6361 96.9831 36.2809 97.2968L35.2406 98.2656C34.5517 98.9151 33.8398 99.5456 33.167 100.207C27.8559 105.572 23.7967 112.045 21.2798 119.163C20.0487 122.653 19.3031 126.296 19.0637 129.99C18.844 133.607 19.2338 137.236 20.2169 140.724C20.3463 141.261 20.5175 141.787 20.7289 142.297L21.299 143.853C21.7249 144.874 22.2117 145.869 22.7568 146.832C23.8454 148.787 25.1459 150.616 26.6349 152.286C28.15 153.976 29.8139 155.527 31.6067 156.92C33.427 158.32 35.3639 159.563 37.3964 160.633C41.5086 162.8 45.9329 164.316 50.5107 165.124C55.1791 165.94 59.9259 166.215 64.6573 165.944C67.0428 165.818 69.434 165.601 71.8178 165.252C74.1993 164.895 76.5744 164.445 78.9389 163.919L80.7088 163.506C81.2981 163.363 81.8824 163.193 82.4695 163.039L85.989 162.091C87.164 161.781 88.3087 161.364 89.4706 161.007C90.6236 160.621 91.7971 160.297 92.9337 159.861C102.12 156.564 110.944 152.336 119.27 147.244C127.6 142.09 135.476 136.238 142.814 129.75C150.145 123.214 156.97 116.132 163.231 108.565C169.504 100.99 175.252 92.9954 180.435 84.6366C185.646 76.2814 190.275 67.5773 194.29 58.5859C199.148 47.7282 203.16 36.5114 206.291 25.0358L206.848 23.0439C207.008 22.3896 207.165 21.7499 207.319 21.1249L208.222 17.5489C208.843 15.2862 209.254 13.2135 209.713 11.3623C210.653 7.66264 211.252 4.75275 211.86 2.53963C212.726 -0.685972 213.119 -0.636181 213.064 2.25028C213.028 3.69175 212.915 5.84792 212.622 8.64292C212.442 10.0351 212.228 11.586 211.979 13.2957L211.578 15.9702C211.399 16.8923 211.213 17.8515 211.02 18.8476C208.974 29.3712 206.054 39.7057 202.29 49.7439C197.997 61.2083 192.776 72.3036 186.678 82.9191C185.909 84.2404 185.103 85.5401 184.318 86.8518C183.517 88.1537 182.763 89.4855 181.923 90.7631L179.396 94.5909L178.133 96.505C177.708 97.14 177.25 97.753 176.811 98.3778C175.026 100.86 173.296 103.383 171.39 105.775L168.591 109.407C167.63 110.596 166.64 111.762 165.667 112.94C161.8 117.678 157.636 122.172 153.321 126.511C149.007 130.861 144.475 134.99 139.744 138.882C135.022 142.804 130.086 146.461 124.958 149.836C119.833 153.247 114.502 156.337 108.995 159.089L106.703 160.224L105.552 160.794L104.377 161.318C102.805 162.01 101.236 162.724 99.6474 163.403C98.0372 164.031 96.4251 164.661 94.8113 165.291C93.1921 165.906 91.5337 166.416 89.8972 166.979C88.2664 167.563 86.5875 167.986 84.9308 168.46C84.1003 168.691 83.2714 168.922 82.4439 169.152C81.6074 169.353 80.7727 169.553 79.9397 169.753C76.6242 170.503 73.2717 171.078 69.896 171.477C64.5246 172.141 59.0971 172.223 53.7081 171.722C48.2235 171.218 42.8463 169.89 37.7583 167.781C32.6127 165.622 27.889 162.571 23.8052 158.769C21.757 156.821 19.9189 154.664 18.3213 152.332C17.5157 151.158 16.7803 149.936 16.1191 148.675L15.1774 146.749L14.3955 144.752C13.8795 143.419 13.4515 142.053 13.114 140.664C12.9274 139.976 12.7818 139.277 12.6779 138.571C12.5568 137.869 12.4225 137.167 12.3169 136.463C11.9886 133.647 11.9575 130.805 12.2241 127.983C12.7532 122.413 14.2359 116.976 16.6075 111.909C18.9328 106.892 21.9502 102.226 25.5717 98.0476C29.1972 93.9139 33.3618 90.2863 37.9538 87.2623C44.7209 82.7384 52.2348 79.4469 60.1483 77.54C61.1238 77.2535 62.1311 77.1014 63.1275 76.9024C64.128 76.7238 65.1202 76.4962 66.128 76.3602L69.16 76.0066C69.6665 75.9581 70.1691 75.8738 70.6785 75.8553L72.2052 75.7899C73.2228 75.7521 74.2404 75.6929 75.2585 75.6758L78.3168 75.7694L79.8452 75.8239L81.3688 75.9846L84.4146 76.3115L87.4314 76.8687L88.9388 77.1511C89.4369 77.2663 89.9289 77.4116 90.4241 77.541L93.3884 78.3444C94.3632 78.6575 95.3205 79.0292 96.2864 79.3705C100.155 80.7597 103.839 82.6172 107.257 84.9013C108.965 86.0279 110.612 87.2439 112.192 88.544C113.759 89.851 115.259 91.2369 116.686 92.6962C119.537 95.607 122.091 98.7947 124.309 102.212C128.289 108.321 131.077 115.128 132.524 122.274C133.97 129.473 133.814 136.902 132.068 144.034C130.338 151.113 127.27 157.678 123.709 163.779C120.128 169.843 116.109 175.637 111.685 181.116C94.0197 203.029 70.3261 219.771 44.15 229.742C38.9983 231.682 33.745 233.341 28.4133 234.711C23.2686 236.006 18.0529 237 12.7925 237.688C7.76744 238.332 2.70826 238.675 -2.35781 238.715C-4.82699 238.675 -7.25558 238.664 -9.64701 238.486C-12.0372 238.378 -14.3845 238.118 -16.6859 237.871C-18.2421 237.698 -19.7867 237.434 -21.3117 237.079C-22.2854 236.889 -22.6793 236.6 -22.5103 236.412C-22.1706 236.002 -19.5417 235.517 -14.7001 235.026C-13.8452 234.997 -12.9877 234.968 -12.1277 234.939C-11.269 234.882 -10.4081 234.824 -9.5448 234.767C-8.68246 234.705 -7.81808 234.664 -6.95357 234.587C-6.08995 234.501 -5.22434 234.415 -4.35671 234.328C-2.62231 234.17 -0.886577 233.965 0.854223 233.761C2.59733 233.586 4.335 233.308 6.07797 233.054C13.0807 231.988 20.0082 230.476 26.8181 228.527C38.2069 225.332 49.2318 220.959 59.7146 215.48C59.724 215.428 59.7362 215.376 59.7509 215.326Z" fill="#3C0079"/>
</svg>
