<svg width="24" height="24" viewBox="0 0 24 24" fill="none" xmlns="http://www.w3.org/2000/svg">
<g id="noun-send-4514372 1" clip-path="url(#clip0_3_27431)">
<g id="Group">
<path id="Vector" d="M4.61442 15.7845C4.98365 15.4153 4.98365 14.9538 4.61442 14.5845C4.24519 14.2153 3.78365 14.2153 3.41442 14.5845L2.21442 15.7845C1.84519 16.1538 1.84519 16.6153 2.21442 16.9845C2.58365 17.3538 3.04519 17.3538 3.41442 16.9845L4.61442 15.7845Z" fill="white"/>
<path id="Vector_2" d="M8.21584 15.7846C7.84661 15.4154 7.38507 15.4154 7.01584 15.7846L3.41584 19.3846C3.04661 19.7538 3.04661 20.2154 3.41584 20.5846C3.78507 20.9538 4.24661 20.9538 4.61584 20.5846L8.12353 17.0769C8.49276 16.7077 8.49276 16.1538 8.21584 15.7846Z" fill="white"/>
<path id="Vector_3" d="M20.5851 1.01544L2.12352 7.84621C0.461983 8.49236 0.461983 10.8001 2.21583 11.3539L7.20044 13.0154C8.12352 13.2924 9.13891 13.1077 9.96968 12.5539L18.5543 5.53852L11.5389 14.1231C10.8928 14.8616 10.7081 15.877 11.0774 16.8924L12.7389 21.877C13.2928 23.5385 15.6928 23.6308 16.2466 21.9693L22.9851 3.60005C23.5389 1.93852 22.062 0.461593 20.5851 1.01544Z" fill="white"/>
<path id="Vector_4" d="M8.2152 19.3848L7.0152 20.5848C6.64597 20.9541 6.64597 21.4156 7.0152 21.7848C7.38444 22.1541 7.84597 22.1541 8.2152 21.7848L9.4152 20.5848C9.78443 20.2156 9.78443 19.7541 9.4152 19.3848C9.04597 19.0156 8.49213 19.0156 8.2152 19.3848Z" fill="white"/>
</g>
</g>
<defs>
<clipPath id="clip0_3_27431">
<rect width="24" height="24" fill="white"/>
</clipPath>
</defs>
</svg>
