<svg width="20" height="20" viewBox="0 0 20 20" fill="none" xmlns="http://www.w3.org/2000/svg">
<g id="clock-five 1" clip-path="url(#clip0_1_503)">
<path id="Vector" d="M10 20C4.48583 20 0 15.5142 0 10C0 4.48583 4.48583 0 10 0C15.5142 0 20 4.48583 20 10C20 15.5142 15.5142 20 10 20ZM10 0.833333C4.94583 0.833333 0.833333 4.94583 0.833333 10C0.833333 15.0542 4.94583 19.1667 10 19.1667C15.0542 19.1667 19.1667 15.0542 19.1667 10C19.1667 4.94583 15.0542 0.833333 10 0.833333ZM12.3333 14.0833C12.5175 13.945 12.555 13.6842 12.4175 13.5L10.0008 10.2775V4.58333C10.0008 4.35333 9.81417 4.16667 9.58417 4.16667C9.35417 4.16667 9.1675 4.35333 9.1675 4.58333V10.4167C9.1675 10.5067 9.19667 10.5942 9.25083 10.6667L11.7508 14C11.8333 14.1092 11.9583 14.1667 12.0842 14.1667C12.1708 14.1667 12.2583 14.1392 12.3333 14.0833Z" fill="#2B2B33"/>
</g>
<defs>
<clipPath id="clip0_1_503">
<rect width="20" height="20" fill="white"/>
</clipPath>
</defs>
</svg>
