<svg width="111" height="111" viewBox="0 0 111 111" fill="none" xmlns="http://www.w3.org/2000/svg">
<g id="spark, sparks, sparkle, stars, 30">
<path id="Vector" d="M18.841 37.124C21.339 38.3789 23.8365 39.8974 25.932 41.9981C26.9643 43.0504 27.8715 44.2186 28.6353 45.4794C29.3784 46.72 30.0097 48.0243 30.5216 49.3767C31.5827 52.2197 32.1586 55.1607 32.6054 58.0426C32.7225 58.7576 32.8281 59.4722 32.9275 60.1845L33.2136 62.3174L30.6073 62.6419C30.1894 59.2871 29.8621 55.8397 30.1489 52.3424C30.422 48.8607 31.337 45.3128 33.1934 42.2052C33.6593 41.4239 34.1836 40.6789 34.7619 39.9766C35.3417 39.2614 35.986 38.6009 36.6866 38.0035C36.8573 37.8464 37.0427 37.7102 37.2242 37.568C37.4081 37.4296 37.5852 37.2794 37.7757 37.1515C38.1558 36.8938 38.5327 36.628 38.9306 36.404C39.7111 35.9395 40.5246 35.533 41.3646 35.1877C42.1894 34.8467 43.0326 34.5516 43.8901 34.3038C44.7394 34.0667 45.5921 33.8474 46.4425 33.6758C48.145 33.3141 49.8367 33.0703 51.5048 32.8307L51.6693 35.992L50.1828 35.96C48.5677 35.9297 46.9379 35.8432 45.2955 35.7104C43.6144 35.5896 41.9447 35.3428 40.3005 34.9721C38.5671 34.5848 36.9062 33.925 35.3796 33.0172C34.5909 32.5301 33.8618 31.9526 33.2069 31.2965C32.5548 30.6368 31.9871 29.8986 31.517 29.0989C30.5884 27.5365 30.0188 25.9018 29.532 24.3294C29.0405 22.7472 28.6311 21.1407 28.3055 19.5163C27.9718 17.8946 27.7334 16.2548 27.5917 14.6052C27.5234 13.7807 27.4702 12.9553 27.4445 12.1291L27.4255 11.5095C27.4206 11.3031 27.4258 11.0962 27.4085 10.89C27.3847 10.4773 27.3796 10.064 27.3645 9.65072L30.1669 9.78339C29.9314 12.7989 29.6793 15.866 29.0982 18.9481C29.019 19.3326 28.9465 19.7189 28.8609 20.1025L28.5734 21.2516L28.2451 22.3961L27.8717 23.5332C27.3425 25.0604 26.6669 26.5329 25.8545 27.9302C24.2835 30.5715 22.1287 32.8182 19.5553 34.4981C18.5605 35.1671 17.472 35.6851 16.3254 36.0352C15.9067 36.1551 15.4791 36.2415 15.0467 36.2934C14.854 36.3145 14.6724 36.3281 14.5019 36.3345L14.3759 36.3381L14.274 36.3254C14.2025 36.3156 14.1335 36.3062 14.067 36.2971C13.2425 36.1767 12.7847 36.0332 13.4199 35.4087C13.5118 35.322 13.609 35.2412 13.7109 35.1665C13.7642 35.1251 13.8395 35.0782 13.8875 35.0389C13.9321 35.0016 13.9787 34.9626 14.0273 34.922C14.2216 34.761 14.4563 34.6035 14.7154 34.4172C14.9723 34.2264 15.2709 34.0451 15.5845 33.8209C15.7436 33.7147 15.9099 33.6037 16.0832 33.488C16.2533 33.3676 16.4313 33.2453 16.6173 33.1211C17.5796 32.4611 18.4977 31.7388 19.3657 30.9588C20.2521 30.1749 21.0768 29.3237 21.8324 28.413C22.8623 27.1569 23.7279 25.7748 24.4085 24.2999C25.0964 22.7937 25.6437 21.2271 26.0434 19.6202C26.9015 16.3815 27.2895 12.9749 27.6536 9.54136L27.6538 9.53941C27.6841 9.25494 27.822 8.99282 28.0392 8.80672C28.2565 8.62062 28.5367 8.52463 28.8224 8.53841C29.1082 8.55219 29.3778 8.6747 29.5762 8.88084C29.7745 9.08698 29.8866 9.36115 29.8893 9.64721C29.8944 10.2042 29.876 10.7623 29.915 11.3189C29.9504 11.8752 29.9922 12.4309 30.0486 12.9851C30.1562 14.094 30.3162 15.1962 30.4989 16.2927C30.8602 18.4842 31.3899 20.6447 32.0831 22.7549C32.5265 24.198 33.1025 25.5969 33.8036 26.9339C34.1334 27.5381 34.5222 28.1083 34.9642 28.636C35.3956 29.1318 35.8735 29.5852 36.3913 29.9899C36.8773 30.3536 37.3933 30.6755 37.9337 30.9519C38.499 31.2302 39.0826 31.4699 39.6803 31.6694C40.9312 32.0686 42.2166 32.3499 43.5199 32.5097C46.1892 32.857 48.9635 32.9078 51.7537 33.0108L51.7701 33.0114C52.1197 33.0243 52.4516 33.1681 52.7001 33.4143C52.9486 33.6605 53.0955 33.9911 53.1116 34.3405C53.1277 34.6899 53.0119 35.0326 52.7872 35.3007C52.5624 35.5687 52.2451 35.7425 51.8982 35.7875C49.7798 36.0625 47.6953 36.3501 45.6921 36.8168C43.6971 37.2937 41.7652 37.9186 40.0593 38.8995C39.3316 39.3152 38.6445 39.7981 38.007 40.3421C37.3734 40.8983 36.793 41.5123 36.2733 42.1761C35.2358 43.5489 34.4202 45.076 33.8562 46.7016C33.2789 48.3512 32.9066 50.0654 32.7475 51.8058C32.582 53.5748 32.5452 55.3535 32.6374 57.1279C32.7115 58.8552 32.8872 60.5928 33.091 62.3366L33.0923 62.3481C33.1288 62.6609 33.0398 62.9753 32.8448 63.2225C32.6498 63.4697 32.3648 63.6295 32.0521 63.6669C31.7395 63.7043 31.4248 63.6162 31.177 63.4219C30.9293 63.2276 30.7687 62.943 30.7304 62.6305C30.3881 59.8298 30.0268 57.0531 29.3793 54.3764C29.0752 53.0441 28.6865 51.7326 28.2158 50.4498C27.7457 49.1897 27.1582 47.9766 26.4609 46.8265C26.2779 46.5486 26.1079 46.2602 25.9154 45.9894L25.3205 45.1899C24.902 44.6756 24.457 44.1834 23.9873 43.7154C23.0151 42.7837 21.9496 41.9544 20.8078 41.2406C20.2328 40.8755 19.6401 40.5313 19.0346 40.2032C18.7319 40.0393 18.4263 39.8791 18.1177 39.7226L17.653 39.4902L17.4207 39.3762L17.2 39.2774C16.9121 39.1389 16.5962 39.0269 16.2893 38.9056C15.9699 38.8015 15.6577 38.6833 15.3299 38.5937C14.6846 38.3929 14.0183 38.2407 13.3524 38.0964C12.0609 37.8271 10.7505 37.6579 9.43294 37.5903C8.15591 37.5275 6.89577 37.6026 5.84844 37.9652L5.54741 36.7677L5.54643 36.6885H5.54763H5.555H5.56486H5.58459L5.62404 36.6888C5.64964 36.6893 5.67586 36.6899 5.71271 36.688L5.9165 36.6814L6.33102 36.6642C6.60905 36.6518 6.8855 36.6394 7.16037 36.6272C7.71225 36.6052 8.25738 36.5835 8.79578 36.5621C9.87434 36.5231 10.9273 36.4998 11.9561 36.478C12.3062 36.4648 12.6567 36.4785 13.0047 36.5189C13.1396 36.5298 13.2203 36.5704 13.3447 36.57C13.4258 36.5677 13.5055 36.5903 13.5734 36.6346L13.7776 36.3962C13.7488 36.505 13.7088 36.5529 13.7279 36.5627C13.7409 36.5725 13.8118 36.5417 13.8766 36.4376C13.8844 36.4251 13.8894 36.411 13.8912 36.3964C13.8929 36.3817 13.8914 36.3669 13.8868 36.3529C13.8821 36.3389 13.8744 36.3261 13.8642 36.3154C13.854 36.3047 13.8416 36.2964 13.8278 36.2911C13.8141 36.2858 13.7993 36.2836 13.7846 36.2846C13.7698 36.2857 13.7555 36.29 13.7427 36.2972C13.7298 36.3045 13.7187 36.3145 13.7101 36.3265C13.7016 36.3385 13.6958 36.3523 13.6932 36.3668L13.6296 36.7262C13.6177 36.7926 13.528 36.8942 13.3614 37.007C13.2457 37.1013 13.1198 37.1822 12.9859 37.2481C12.5733 37.4499 12.1382 37.6018 11.6897 37.7006C10.7181 37.924 9.73959 38.1216 8.74654 38.3094C8.25031 38.403 7.75063 38.493 7.2475 38.5795L6.48604 38.7057L6.09472 38.7657L5.89104 38.7945C5.81452 38.8046 5.70012 38.8148 5.60608 38.8229C5.2692 38.8519 4.93278 38.7622 4.65512 38.5692C4.37746 38.3763 4.17604 38.0923 4.08578 37.7664C3.99551 37.4405 4.02208 37.0934 4.16088 36.785C4.29968 36.4767 4.54196 36.2267 4.84575 36.0782L4.94288 36.0314C5.72539 35.6673 6.55659 35.4185 7.41052 35.293C7.80606 35.245 8.20952 35.1832 8.59738 35.169C8.79274 35.1583 8.99009 35.1424 9.18412 35.1374L9.7633 35.1327C11.3002 35.1479 12.8311 35.3268 14.33 35.6664C15.0874 35.8298 15.8362 36.0311 16.5734 36.2693L17.1327 36.456L17.6943 36.6697C17.8801 36.7361 18.0713 36.8263 18.2601 36.9083L18.5436 37.0339L18.7962 37.1557C18.8108 37.1446 18.8244 37.1345 18.841 37.124Z" fill="#3C0079"/>
<path id="Vector_2" d="M85.2447 43.6046C86.5471 45.1661 87.5974 46.9217 88.3575 48.8077C88.4506 49.0439 88.551 49.2767 88.6367 49.5154L88.8654 50.2429C88.938 50.4863 89.0233 50.7254 89.0842 50.9721L89.2518 51.7167C89.3029 51.9659 89.3723 52.2105 89.4068 52.4629L89.5104 53.2197L89.5611 53.5978C89.5785 53.7226 89.5955 53.8487 89.6042 53.9874C89.6247 54.2595 89.6351 54.5405 89.6281 54.8331C89.6211 55.359 89.5356 55.8809 89.3744 56.3815C89.2742 56.6732 89.1402 56.9522 88.9752 57.2127C88.7914 57.4904 88.5686 57.7403 88.3136 57.9547L88.2955 57.9698C88.0845 58.147 87.8248 58.2562 87.5506 58.283C87.2764 58.3099 87.0004 58.2533 86.759 58.1205C86.5176 57.9877 86.322 57.785 86.1978 57.539C86.0737 57.293 86.0268 57.0153 86.0634 56.7422C86.2342 55.477 86.4768 54.2225 86.79 52.9849C87.2995 50.9157 88.0889 48.9257 89.1365 47.07C90.21 45.1727 91.6128 43.4818 93.2793 42.0765C94.9855 40.6668 96.9561 39.6121 99.0755 38.9744C101.253 38.3271 103.554 38.2189 105.783 38.6592C106.11 38.7267 106.408 38.8943 106.636 39.1386C106.864 39.383 107.01 39.6922 107.055 40.0234C107.1 40.3546 107.04 40.6914 106.885 40.9874C106.73 41.2834 106.487 41.5239 106.189 41.6756L106.159 41.6904C105.434 42.0487 104.657 42.2907 103.857 42.4073C103.121 42.5105 102.376 42.5402 101.635 42.4959C100.924 42.4606 100.246 42.3763 99.5954 42.283C98.946 42.1875 98.3264 42.0946 97.6539 41.9718C96.6866 41.8091 95.7399 41.5413 94.8307 41.1732C94.333 40.9644 93.8571 40.707 93.4099 40.4048C92.9533 40.0931 92.5318 39.7329 92.1528 39.3305C91.449 38.5594 90.874 37.6799 90.4499 36.726C90.0569 35.8448 89.7485 34.9283 89.5287 33.9887C88.6416 30.3481 88.7166 26.5393 89.7461 22.9363L89.7477 22.931C89.8378 22.617 90.0178 22.3362 90.2655 22.1232C90.5132 21.9102 90.8178 21.7743 91.1417 21.7322C91.4657 21.6901 91.7949 21.7438 92.0888 21.8864C92.3827 22.0291 92.6284 22.2547 92.7957 22.5353C93.3203 23.4466 93.6043 24.4766 93.6209 25.528C93.6378 26.4498 93.5237 27.3692 93.282 28.2589C93.1751 28.6881 93.0366 29.085 92.9046 29.4861C92.7572 29.8818 92.6134 30.2795 92.4384 30.6631C92.1045 31.4365 91.7129 32.1837 91.2668 32.8983C89.4942 35.7844 86.9247 38.0962 83.868 39.555C81.9234 40.4666 79.8117 40.9674 77.6649 41.0261C76.8225 41.0554 75.9814 40.9398 75.1781 40.6846C75.0152 40.6301 74.8629 40.5738 74.7208 40.5145C74.5791 40.4494 74.4476 40.3828 74.3261 40.3149C74.1039 40.1961 73.8971 40.0503 73.7104 39.8809C73.2195 39.4385 73.3127 39.0824 73.8004 38.8496C74.2899 38.6218 75.1744 38.5015 76.376 38.3809L76.9517 38.3187L77.5342 38.2409C77.924 38.1814 78.319 38.1319 78.7124 38.0581C79.4977 37.9193 80.2741 37.7337 81.0373 37.5023C82.5102 37.0442 83.8929 36.3354 85.1247 35.407C87.6139 33.536 89.4219 30.9012 90.2723 27.9055C90.4753 27.2229 90.5783 26.5146 90.5782 25.8025C90.5872 25.2147 90.4294 24.6365 90.1231 24.1349L92.7414 23.7906C92.4748 24.8504 92.3081 25.9329 92.2436 27.0239C92.1189 29.0382 92.3935 31.1095 92.7404 33.0126C92.9807 34.3689 93.4015 35.6528 94.0854 36.6399C94.4074 37.1145 94.8156 37.5246 95.2886 37.849C95.8045 38.177 96.3665 38.4262 96.956 38.5883C97.6282 38.774 98.311 38.9191 99.0006 39.0228C99.7354 39.1416 100.467 39.2608 101.155 39.3311C102.54 39.4801 103.815 39.4236 104.79 38.9458L105.127 41.6559L104.643 41.5641L104.402 41.5164L104.157 41.4876L103.667 41.4282L103.171 41.4033C102.045 41.3605 100.919 41.4924 99.8338 41.7943C98.7285 42.1045 97.6688 42.5585 96.6818 43.1448C95.6886 43.7321 94.7718 44.4399 93.9523 45.2522C93.1249 46.0769 92.39 46.9894 91.7606 47.9735C90.0325 50.6435 89.0133 53.8052 88.5901 57.0364L86.6781 56.0062C86.7921 55.9102 86.8784 55.7854 86.9278 55.6447C87.0074 55.4257 87.0528 55.1957 87.0624 54.9628C87.0775 54.6735 87.0698 54.3835 87.0395 54.0954L86.902 53.1315C86.8549 52.8095 86.7898 52.4905 86.7069 52.1759L86.5975 51.6994C86.5642 51.5395 86.5017 51.3875 86.4555 51.231C86.3519 50.9213 86.2637 50.6058 86.1491 50.2994L85.7737 49.3903C85.2298 48.1892 84.5534 47.0526 83.7573 46.0015C82.9422 44.9575 82.0198 44.0019 81.0051 43.1506C79.7237 42.1029 78.3289 41.202 76.847 40.4648C76.7579 40.4182 76.6703 40.3679 76.5806 40.3237L76.3073 40.2035L75.7641 39.9576C75.4074 39.7764 75.036 39.6562 74.6719 39.5097L74.1262 39.2919C73.9476 39.2276 73.7705 39.1698 73.5925 39.1246C73.2406 39.0151 72.8641 39.0135 72.5113 39.12C72.425 39.153 72.3465 39.1936 72.2845 39.2216C72.2832 39.2222 72.2821 39.223 72.2811 39.224C72.2801 39.2251 72.2794 39.2263 72.2789 39.2276L72.2718 39.2476C72.2484 39.3202 72.2534 39.399 72.2857 39.4681C72.315 39.5315 72.3568 39.5882 72.4088 39.6348C72.5026 39.7187 72.62 39.7716 72.745 39.7862C72.8041 39.7942 72.8642 39.7895 72.9214 39.7726C72.9725 39.7627 73.0228 39.7492 73.0719 39.732C73.1548 39.7007 73.2151 39.6809 73.2494 39.703C73.2826 39.7236 73.2924 39.7888 73.2435 39.8999C73.2077 39.9678 73.1601 40.0287 73.1029 40.0799C73.0342 40.1621 72.9448 40.2243 72.8439 40.2603C72.6019 40.3582 72.3331 40.3669 72.0853 40.2848C71.9021 40.2241 71.7376 40.1171 71.608 39.974C71.515 39.8703 71.4415 39.7504 71.3913 39.6204C71.3337 39.4662 71.3076 39.3021 71.3146 39.1377C71.3193 39.0129 71.3599 38.8921 71.4315 38.7898L71.6111 38.5324C71.7053 38.3971 71.8156 38.2737 71.9396 38.1651C72.0088 38.1046 72.0823 38.0493 72.1595 37.9994C72.2418 37.9532 72.3272 37.9126 72.415 37.8781C72.8302 37.7204 73.2719 37.6439 73.716 37.653C74.0629 37.6545 74.4092 37.6849 74.7512 37.7439L75.6913 37.8935L75.9278 37.9342L76.1596 37.9928L76.6247 38.1126C77.8787 38.4387 79.0897 38.9119 80.2325 39.5225C82.12 40.5793 83.8013 41.968 85.1956 43.622C85.2114 43.6162 85.2262 43.611 85.2447 43.6046Z" fill="#3C0079"/>
<path id="Vector_3" d="M55.972 77.1569L56.9624 77.7113L57.9153 78.3293L58.1524 78.4852L58.3799 78.6556L58.8342 78.9973C58.9846 79.1123 59.138 79.2234 59.2857 79.3419L59.7159 79.7144C60.2915 80.2088 60.8388 80.7352 61.3554 81.2909L62.0981 82.1526C62.3413 82.4429 62.5556 82.7553 62.7844 83.0559C63.662 84.2801 64.4061 85.5947 65.004 86.9772C65.5825 88.358 66.0208 89.7934 66.3125 91.2618C66.3789 91.6521 66.46 92.0401 66.5103 92.433L66.6412 93.6143L66.6989 94.802C66.7193 95.1976 66.6932 95.5951 66.692 95.9912C66.6404 97.5786 66.4143 99.1556 66.0178 100.694L65.7077 101.776C65.6185 102.087 65.42 102.355 65.1487 102.531C64.8774 102.707 64.5516 102.78 64.2313 102.735C63.911 102.69 63.6177 102.531 63.4054 102.286C63.1931 102.042 63.0761 101.73 63.076 101.406L63.0764 101.344C63.0794 97.8514 63.072 94.2502 63.7432 90.6329C64.0731 88.802 64.6128 87.0152 65.3516 85.3079C66.1063 83.5532 67.141 81.9327 68.4154 80.5098C69.7224 79.1005 71.258 77.922 72.9574 77.024C74.6066 76.1629 76.3416 75.4772 78.1339 74.978C79.015 74.7264 79.8983 74.5114 80.7849 74.3212C81.6737 74.1333 82.584 73.9678 83.5243 73.8651C84.4854 73.7515 85.4546 73.7228 86.4208 73.7792C87.4343 73.839 88.436 74.0285 89.4013 74.343C89.7194 74.4467 89.9977 74.646 90.1983 74.9138C90.3989 75.1816 90.5119 75.5048 90.522 75.8392C90.5321 76.1736 90.4387 76.503 90.2546 76.7824C90.0705 77.0618 89.8046 77.2775 89.4933 77.4002L89.4584 77.4138C87.9385 77.9794 86.3313 78.2751 84.7095 78.2874C82.9886 78.2979 81.27 78.1612 79.5724 77.8789C77.8893 77.6453 76.2229 77.304 74.5835 76.857C73.7363 76.6223 72.9042 76.3361 72.0918 76C71.2551 75.6605 70.4478 75.2527 69.678 74.7807C68.8884 74.2988 68.1473 73.7415 67.4652 73.1167C66.7866 72.4883 66.1722 71.7939 65.6313 71.0437C64.6028 69.5936 63.7678 68.0157 63.1474 66.3497C61.9277 63.1493 61.1743 59.7901 60.9102 56.3753C60.8793 55.9494 60.8528 55.5231 60.8382 55.0963C60.8286 54.883 60.8218 54.6696 60.8191 54.4561C60.8157 54.2407 60.808 54.0414 60.8124 53.7795C60.8123 53.2043 60.8973 52.6322 61.0648 52.0819C61.1795 51.7182 61.3509 51.3749 61.5726 51.0647C61.8374 50.6978 62.1798 50.3937 62.5753 50.174L62.5921 50.1649C62.7856 50.0593 62.9981 49.9929 63.2173 49.9695C63.4365 49.946 63.6582 49.966 63.8697 50.0282C64.0812 50.0905 64.2784 50.1937 64.45 50.3322C64.6216 50.4706 64.7643 50.6415 64.8698 50.8351C64.9831 51.0448 65.0513 51.2759 65.0701 51.5135C65.5653 58.3171 63.8092 65.0948 60.0724 70.8019C59.2024 72.1279 58.171 73.3408 57.0021 74.4127C56.4036 74.9537 55.7624 75.4456 55.0848 75.8836C54.4043 76.3236 53.6845 76.6996 52.9345 77.0065C51.745 77.5115 50.4569 77.7413 49.1662 77.6789C48.3388 77.6483 47.5309 77.4191 46.8106 77.0107C46.0358 76.5174 46.1893 76.1767 46.8641 76.018C47.2072 75.919 47.6865 75.8576 48.2886 75.7427C49.0163 75.607 49.7344 75.4242 50.4383 75.1954C51.5189 74.8302 52.5404 74.3094 53.4708 73.6496C54.4388 72.9563 55.3231 72.153 56.106 71.2559C57.2361 69.9442 58.2063 68.5028 58.9962 66.962C59.8148 65.4152 60.4797 63.7919 60.9814 62.1152C61.992 58.7615 62.3537 55.2457 62.0472 51.7564L64.0434 52.8282C64.044 52.8293 64.0469 52.8334 64.044 52.8287L64.0364 52.818C64.0377 52.8202 64.0392 52.8223 64.0408 52.8243C64.0449 52.8295 64.0488 52.8333 64.0467 52.8305V52.8346C64.0353 52.8509 64.0257 52.8684 64.0182 52.8868C63.9662 53.0095 63.9326 53.1393 63.9184 53.2718C63.892 53.4797 63.8815 53.6893 63.8871 53.8988L63.9166 54.6923C63.9715 55.7712 64.0858 56.8459 64.2421 57.9131C64.5634 60.0441 65.1007 62.1368 65.8458 64.159C66.3602 65.5953 67.0315 66.9704 67.8473 68.2595C68.2368 68.8656 68.6735 69.4399 69.1533 69.9773C69.3842 70.236 69.628 70.4829 69.8837 70.7171C70.0128 70.8315 70.1331 70.954 70.2655 71.064L70.6627 71.3931C71.853 72.3052 73.1869 73.0126 74.6097 73.4862C76.1148 73.9951 77.66 74.3768 79.2289 74.6275C80.801 74.9197 82.3916 75.1022 83.9891 75.1736C85.4728 75.2454 86.9565 75.0303 88.3588 74.5399L88.4093 77.2558C87.021 76.7837 85.453 76.7064 83.8425 76.8686C83.037 76.9447 82.2192 77.0781 81.3928 77.2371C80.5654 77.3987 79.7434 77.5805 78.9355 77.7896C77.2045 78.216 75.5344 78.8595 73.9647 79.7047C72.4392 80.5232 71.0858 81.6284 69.979 82.9598C68.8823 84.3268 68.0159 85.8636 67.4139 87.5096C66.7934 89.1949 66.3602 90.9434 66.1219 92.7235C65.7217 95.5271 65.679 98.4232 65.6419 101.358L63.2723 100.969C64.8507 96.3163 64.3002 90.9534 61.9379 86.5914C61.7835 86.3228 61.6464 86.0428 61.4784 85.7824L60.9732 85.0014C60.8014 84.7433 60.6046 84.5038 60.4219 84.2534C60.3273 84.1309 60.2399 84.0021 60.1395 83.8845L59.8345 83.5345C59.43 83.0654 59.0021 82.6169 58.5525 82.1908C58.0807 81.7881 57.6235 81.3663 57.1124 81.0095C56.8674 80.8175 56.6127 80.638 56.3494 80.4718C56.0859 80.3057 55.8287 80.1289 55.5603 79.9703L54.7407 79.5173C54.4695 79.362 54.1779 79.2461 53.8977 79.1079C52.7612 78.5792 51.5729 78.1701 50.3518 77.8871C47.4423 77.204 44.4209 77.1452 41.487 77.7148L41.4563 76.5504C43.2132 77.0847 45.0574 77.2717 46.8858 77.1011C47.9236 77.0035 48.4504 76.9755 48.4461 77.1988C48.4391 77.2974 48.302 77.4683 48.0065 77.6629C47.8272 77.781 47.6396 77.8858 47.4451 77.9765C47.3315 78.0319 47.2076 78.0879 47.0722 78.14C47.0045 78.166 46.9349 78.196 46.8615 78.2195C46.7875 78.241 46.711 78.2622 46.6321 78.2831C44.7983 78.7648 42.8826 78.8477 41.0141 78.5262C40.7048 78.472 40.4226 78.3158 40.2124 78.0826C40.0022 77.8494 39.876 77.5525 39.854 77.2393C39.8321 76.9261 39.9155 76.6146 40.0911 76.3543C40.2667 76.094 40.5243 75.9 40.823 75.8031L40.9415 75.7651C42.7977 75.1733 44.7346 74.8731 46.6829 74.8753C48.2828 74.8706 49.8765 75.0744 51.4237 75.4815C52.9816 75.8847 54.4909 76.4564 55.9249 77.1864C55.9401 77.176 55.9545 77.1665 55.972 77.1569Z" fill="#3C0079"/>
</g>
</svg>
