<svg preserveAspectRatio="none" viewBox="0 0 344 537" fill="none" xmlns="http://www.w3.org/2000/svg">
<path d="M59.1246 162.056V124.969L31.4434 145.394C39.2371 152.65 48.6434 158.294 59.1246 162.056ZM112.875 162.056C123.356 158.294 132.762 152.65 140.556 145.394L112.875 124.7V162.056ZM9.94336 112.875C10.7496 115.562 11.8246 117.981 13.1684 120.669L23.6496 112.875H9.94336ZM148.35 112.875L158.831 120.669C159.906 118.25 160.981 115.562 162.056 112.875H148.35Z" fill="#2A5F9E"/>
<path d="M63.1561 102.125H6.9873C7.79355 105.888 8.86856 109.381 9.94356 112.875H23.6498L13.1686 120.669C15.3186 125.238 17.7373 129.269 20.6936 133.3L48.3748 112.875H59.1248V118.25L27.6811 141.362L31.4436 145.125L59.1248 124.969V162.056C62.6186 163.4 66.1123 164.206 69.8748 165.013V102.125H63.1561ZM165.012 102.125H102.125V165.013C105.887 164.206 109.381 163.131 112.875 162.056V124.969L140.556 145.125C144.319 141.631 147.544 137.869 150.769 133.837L122.012 112.875H140.287L156.681 124.969C157.487 123.625 158.294 122.013 158.831 120.669L148.35 112.875H162.056C163.131 109.381 164.206 105.888 165.012 102.125Z" fill="white"/>
<path d="M20.6934 133.3C22.8434 136.256 24.9934 138.944 27.4121 141.631L59.1246 118.519V113.144H48.3746L20.6934 133.3ZM122.281 112.875L151.037 133.837C152.112 132.494 152.918 131.15 153.993 129.806C154.262 129.537 154.262 129.269 154.531 129.269C155.337 127.925 156.412 126.312 157.218 124.969L140.287 112.875H122.281Z" fill="#ED4C5C"/>
<path d="M112.875 9.94336V47.0309L140.556 26.6059C132.762 19.3496 123.356 13.7059 112.875 9.94336ZM59.1246 9.94336C48.6434 13.7059 39.2371 19.3496 31.4434 26.6059L59.1246 47.2996V9.94336ZM162.056 59.1246C161.25 56.4371 160.175 54.0184 158.831 51.3309L148.35 59.1246H162.056ZM23.6496 59.1246L13.1684 51.3309C12.0934 54.0184 11.0184 56.4371 9.94336 59.1246H23.6496Z" fill="#2A5F9E"/>
<path d="M108.844 69.8748H164.744C163.937 66.1123 162.862 62.6186 161.787 59.1248H148.081L158.562 51.3311C156.412 46.7623 153.994 42.7311 151.037 38.6998L123.625 59.1248H112.875V53.7498L144.319 30.6373L140.556 26.8748L112.875 47.0311V9.94356C109.381 8.59981 105.887 7.79355 102.125 6.9873V69.8748H108.844ZM6.9873 69.8748H69.8748V6.9873C66.1123 7.79355 62.6186 8.86856 59.1248 9.94356V47.0311L31.4436 26.8748C27.6811 30.3686 24.4561 34.1311 21.2311 38.1623L49.9873 59.1248H31.7123L15.3186 47.0311C14.5123 48.3748 13.7061 49.9873 13.1686 51.3311L23.6498 59.1248H9.94356C8.86856 62.6186 7.79355 66.1123 6.9873 69.8748Z" fill="white"/>
<path d="M151.306 38.7004C149.156 35.7441 147.006 33.0566 144.587 30.3691L112.875 53.4816V58.8566H123.625L151.306 38.7004ZM49.7186 59.1254L21.2311 38.1629C20.1561 39.5066 19.3498 40.8504 18.2748 42.1941C18.0061 42.4629 18.0061 42.7316 17.7373 42.7316C16.9311 44.0754 15.8561 45.6879 15.0498 47.0316L31.4436 59.1254H49.7186Z" fill="#ED4C5C"/>
<path d="M165.012 69.875H102.125V6.9875C97.0188 5.9125 91.6438 5.375 86 5.375C80.3562 5.375 74.9812 5.9125 69.875 6.9875V69.875H6.9875C5.9125 74.9812 5.375 80.3562 5.375 86C5.375 91.6438 5.9125 97.0188 6.9875 102.125H69.875V165.012C74.9812 166.088 80.3562 166.625 86 166.625C91.6438 166.625 97.0188 166.088 102.125 165.012V102.125H165.012C166.088 97.0188 166.625 91.6438 166.625 86C166.625 80.3562 166.088 74.9812 165.012 69.875Z" fill="#ED4C5C"/>
<path d="M129 199.738C116.369 191.944 101.856 187.375 86 187.375V199.738H129Z" fill="#ED4C5C"/>
<path d="M86 212.1H144.05C139.481 207.531 134.375 203.231 129 199.737H86V212.1Z" fill="white"/>
<path d="M86 224.462H153.994C151.037 219.893 147.812 215.862 144.319 212.1H86V224.462Z" fill="#ED4C5C"/>
<path d="M86 236.825H160.444C158.563 232.525 156.413 228.225 153.994 224.463H86V236.825Z" fill="white"/>
<path d="M86 249.188H164.475C163.4 244.888 162.056 240.856 160.444 236.825H86V249.188Z" fill="#ED4C5C"/>
<path d="M86 261.819H166.356C166.088 257.519 165.281 253.487 164.475 249.456H86V261.819Z" fill="white"/>
<path d="M166.356 261.818H86V268H5.375C5.375 270.15 5.375 272.031 5.64375 274.181H166.356C166.625 272.031 166.625 270.15 166.625 268C166.625 265.85 166.625 263.7 166.356 261.818Z" fill="#ED4C5C"/>
<path d="M7.52578 286.544H164.476C165.551 282.513 166.088 278.482 166.357 274.182H5.64453C5.91328 278.213 6.45078 282.513 7.52578 286.544Z" fill="white"/>
<path d="M11.5566 298.906H160.444C162.057 294.875 163.4 290.844 164.475 286.544H7.52539C8.60039 290.844 9.94414 294.875 11.5566 298.906Z" fill="#ED4C5C"/>
<path d="M18.0066 311.269H153.994C156.413 307.237 158.563 303.206 160.444 298.906H11.5566C13.4379 303.206 15.5879 307.237 18.0066 311.269Z" fill="white"/>
<path d="M27.6809 323.631H144.318C147.812 319.869 151.306 315.569 153.993 311.269H18.0059C20.6934 315.837 24.1871 319.869 27.6809 323.631Z" fill="#ED4C5C"/>
<path d="M42.7316 335.993H129.269C134.913 332.5 139.75 328.2 144.319 323.631H27.6816C32.2504 328.468 37.3566 332.5 42.7316 335.993Z" fill="white"/>
<path d="M85.9992 348.625C101.855 348.625 116.637 344.057 129.268 335.994H42.7305C55.3617 344.057 70.143 348.625 85.9992 348.625Z" fill="#ED4C5C"/>
<path d="M43 199.738C37.3563 203.231 32.25 207.531 27.6812 212.1C23.9188 215.862 20.6937 220.163 18.0062 224.463C15.5875 228.494 13.1688 232.525 11.5563 236.825C9.94375 240.856 8.6 244.888 7.525 249.188C6.45 253.219 5.9125 257.25 5.64375 261.55C5.375 263.7 5.375 265.85 5.375 268H86V187.375C70.1438 187.375 55.6312 191.944 43 199.738Z" fill="#2A5F9E"/>
<path d="M67.1867 190.062L68.5305 194.094H72.5617L69.3367 196.781L70.4117 200.812L67.1867 198.394L63.9617 200.812L65.0367 196.781L61.8117 194.094H65.843L67.1867 190.062ZM77.9367 206.188L79.2805 210.219H83.3117L80.0867 212.906L81.1617 216.938L77.9367 214.519L74.7117 216.938L75.7867 212.906L72.5617 210.219H76.593L77.9367 206.188ZM56.4367 206.188L57.7805 210.219H61.8117L58.5867 212.906L59.6617 216.938L56.4367 214.519L53.2117 216.938L54.2867 212.906L51.0617 210.219H55.093L56.4367 206.188ZM67.1867 222.312L68.5305 226.344H72.5617L69.3367 229.031L70.4117 233.062L67.1867 230.644L63.9617 233.062L65.0367 229.031L61.8117 226.344H65.843L67.1867 222.312ZM45.6867 222.312L47.0305 226.344H51.0617L47.8367 229.031L48.9117 233.062L45.6867 230.644L42.4617 233.062L43.5367 229.031L40.3117 226.344H44.343L45.6867 222.312ZM24.1867 222.312L25.5305 226.344H29.5617L26.3367 229.031L27.4117 233.062L24.1867 230.644L20.9617 233.062L22.0367 229.031L18.8117 226.344H22.843L24.1867 222.312ZM77.9367 238.438L79.2805 242.469H83.3117L80.0867 245.156L81.1617 249.188L77.9367 246.769L74.7117 249.188L75.7867 245.156L72.5617 242.469H76.593L77.9367 238.438ZM56.4367 238.438L57.7805 242.469H61.8117L58.5867 245.156L59.6617 249.188L56.4367 246.769L53.2117 249.188L54.2867 245.156L51.0617 242.469H55.093L56.4367 238.438ZM34.9367 238.438L36.2805 242.469H40.3117L37.0867 245.156L38.1617 249.188L34.9367 246.769L31.7117 249.188L32.7867 245.156L29.5617 242.469H33.593L34.9367 238.438ZM67.1867 254.562L68.5305 258.594H72.5617L69.3367 261.281L70.4117 265.312L67.1867 262.894L63.9617 265.312L65.0367 261.281L61.8117 258.594H65.843L67.1867 254.562ZM45.6867 254.562L47.0305 258.594H51.0617L47.8367 261.281L48.9117 265.312L45.6867 262.894L42.4617 265.312L43.5367 261.281L40.3117 258.594H44.343L45.6867 254.562ZM24.1867 254.562L25.5305 258.594H29.5617L26.3367 261.281L27.4117 265.312L24.1867 262.894L20.9617 265.312L22.0367 261.281L18.8117 258.594H22.843L24.1867 254.562ZM31.7117 216.938L34.9367 214.519L38.1617 216.938L36.818 212.906L40.043 210.219H36.0117L34.9367 206.188L33.593 210.219H29.8305L33.0555 212.637L31.7117 216.938ZM10.2117 249.188L13.4367 246.769L16.6617 249.188L15.318 245.156L18.543 242.469H14.7805L13.4367 238.438L12.093 242.469H9.40547C9.40547 242.737 9.13672 243.006 9.13672 243.275L11.2867 244.888L10.2117 249.188Z" fill="white"/>
<path d="M86 531.594C130.528 531.594 166.625 495.287 166.625 450.5C166.625 405.713 130.528 369.406 86 369.406C41.472 369.406 5.375 405.713 5.375 450.5C5.375 495.287 41.472 531.594 86 531.594Z" fill="white"/>
<path d="M86 482.938C103.811 482.938 118.25 468.415 118.25 450.5C118.25 432.585 103.811 418.062 86 418.062C68.1888 418.062 53.75 432.585 53.75 450.5C53.75 468.415 68.1888 482.938 86 482.938Z" fill="#ED4C5C"/>
<path d="M177.105 155C177.105 190.206 199.68 220.037 230.855 231.056V78.9434C199.68 89.9621 177.105 119.793 177.105 155Z" fill="#2A5F9E"/>
<path d="M338.355 155C338.355 119.793 316.049 89.9621 284.605 78.9434V231.056C316.049 220.037 338.355 190.206 338.355 155Z" fill="#ED4C5C"/>
<path d="M230.855 231.056C239.187 234.012 248.324 235.625 257.73 235.625C267.137 235.625 276.274 234.012 284.605 231.056V78.9437C276.274 75.9875 267.405 74.375 257.73 74.375C248.055 74.375 239.187 75.9875 230.855 78.9437V231.056Z" fill="white"/>
<path d="M258.233 256.375C223.232 256.375 193.574 278.95 182.619 310.125H333.847C322.893 278.95 293.235 256.375 258.233 256.375Z" fill="#2B2B33"/>
<path d="M258.233 417.625C293.235 417.625 322.893 395.319 333.847 363.875H182.619C193.574 395.319 223.232 417.625 258.233 417.625Z" fill="#FFE62E"/>
<path d="M182.618 310.125C179.679 318.456 178.076 327.594 178.076 337C178.076 346.406 179.679 355.544 182.618 363.875H333.846C336.786 355.544 338.389 346.406 338.389 337C338.389 327.594 336.786 318.456 333.846 310.125H182.618Z" fill="#ED4C5C"/>
</svg>
