<svg width="20" height="20" viewBox="0 0 20 20" fill="none" xmlns="http://www.w3.org/2000/svg">
<g clip-path="url(#clip0_354_5592)">
<path d="M0.52832 10C0.52832 14.0937 3.13779 17.5625 6.74134 18.8437V1.15625C3.13779 2.4375 0.52832 5.90625 0.52832 10Z" fill="#184A38"/>
<path d="M19.1671 10C19.1671 5.90625 16.5577 2.4375 12.9541 1.15625V18.8437C16.5887 17.5625 19.1671 14.0937 19.1671 10" fill="#ED4C5C"/>
<path d="M6.74121 18.8437C7.70423 19.1875 8.76044 19.375 9.84772 19.375C10.935 19.375 11.9912 19.1875 12.9542 18.8437V1.15625C11.9912 0.8125 10.935 0.625 9.84772 0.625C8.76044 0.625 7.70423 0.8125 6.74121 1.15625V18.8437" fill="white"/>
</g>
<defs>
<clipPath id="clip0_354_5592">
<rect width="19.8817" height="20" fill="white"/>
</clipPath>
</defs>
</svg>
