<svg width="20" height="20" viewBox="0 0 20 20" fill="none" xmlns="http://www.w3.org/2000/svg">
<path d="M0.625 10C0.625 4.82233 4.82233 0.625 10 0.625C15.1777 0.625 19.375 4.82233 19.375 10C19.375 15.1777 15.1777 19.375 10 19.375C4.82233 19.375 0.625 15.1777 0.625 10Z" fill="#D4385D"/>
<path d="M10.125 0.625816C10.0834 0.625273 10.0417 0.625 10 0.625C8.61812 0.625 7.30606 0.923984 6.125 1.46079V8.125H0.812534C0.689557 8.73083 0.625 9.35788 0.625 10C0.625 10.7309 0.708638 11.4422 0.866864 12.125H6.125V18.5392C7.30606 19.076 8.61812 19.375 10 19.375C10.0417 19.375 10.0834 19.3747 10.125 19.3742V12.125H19.1331C19.2914 11.4422 19.375 10.7309 19.375 10C19.375 9.35788 19.3104 8.73083 19.1875 8.125H10.125V0.625816Z" fill="#2A5F9E"/>
<path d="M10.125 0.625816V8.125L10.625 8.12418H19.125V7.83938C19.0679 7.59722 19.0014 7.35869 18.9259 7.12418H11.125V0.69099C10.7966 0.651714 10.4629 0.630232 10.125 0.625816Z" fill="white"/>
<path d="M5.125 1.9906C5.33866 1.86028 5.55795 1.73826 5.78241 1.625H6.125V8.125H0.812534C0.88163 7.78461 0.969169 7.45091 1.07406 7.125H5.125V1.9906Z" fill="white"/>
<path d="M1.15846 13.125C1.04342 12.7995 0.945849 12.4658 0.866864 12.125H6.125V18.5392C5.77998 18.3824 5.44614 18.2053 5.125 18.0094V13.125H1.15846Z" fill="white"/>
<path d="M11.125 19.3082C10.7966 19.3475 10.4629 19.3698 10.125 19.3742V12.125H19.1331C19.0542 12.4658 18.9566 12.7995 18.8415 13.125H11.125V19.3082Z" fill="white"/>
</svg>
