<svg width="20" height="20" viewBox="0 0 20 20" fill="none" xmlns="http://www.w3.org/2000/svg">
<g clip-path="url(#clip0_354_5596)">
<path d="M5.3125 18.125V1.875C2.5 3.5 0.625 6.53125 0.625 10C0.625 13.4688 2.5 16.5 5.3125 18.125Z" fill="#184A38"/>
<path d="M10 0.625C8.28125 0.625 6.6875 1.09375 5.3125 1.875V18.125C6.6875 18.9375 8.28125 19.375 10 19.375C15.1875 19.375 19.375 15.1875 19.375 10C19.375 4.8125 15.1875 0.625 10 0.625Z" fill="#ED4C5C"/>
<path d="M5.3125 6.25C3.25 6.25 1.5625 7.9375 1.5625 10C1.5625 12.0625 3.25 13.75 5.3125 13.75C7.375 13.75 9.0625 12.0625 9.0625 10C9.0625 7.9375 7.375 6.25 5.3125 6.25ZM5.3125 13.2812C3.5 13.2812 2.03125 11.8125 2.03125 10C2.03125 8.1875 3.5 6.71875 5.3125 6.71875C7.125 6.71875 8.59375 8.1875 8.59375 10C8.59375 11.8125 7.125 13.2812 5.3125 13.2812Z" fill="#FFE62E"/>
<path d="M6.59473 13.6563C6.53223 13.7188 6.43848 13.7188 6.37598 13.6563L2.09473 8C2.03223 7.9375 2.03223 7.84375 2.09473 7.78125L2.18848 7.6875C2.25098 7.625 2.34473 7.625 2.40723 7.6875L6.68848 13.3438C6.75098 13.4063 6.75098 13.5 6.68848 13.5625L6.59473 13.6563" fill="#FFE62E"/>
<path d="M5.375 6.09375C5.46875 6.09375 5.53125 6.15625 5.53125 6.25V13.75C5.53125 13.8438 5.46875 13.9062 5.375 13.9062H5.21875C5.125 13.9062 5.0625 13.8438 5.0625 13.75V6.25C5.0625 6.15625 5.125 6.09375 5.21875 6.09375H5.375Z" fill="#FFE62E"/>
<path d="M9.03114 10.4063L5.31239 9.75001V10.2188L8.96864 10.875C9.06239 10.875 9.12489 10.8438 9.15614 10.75L9.18739 10.5938C9.18739 10.5313 9.12489 10.4375 9.03114 10.4063M5.31239 9.71876L2.37489 7.65626C2.31239 7.59376 2.21864 7.62501 2.15614 7.68751L2.06239 7.81251C1.99989 7.87501 2.03114 7.96876 2.09364 8.03126L5.31239 10.2813V9.71876" fill="#FFE62E"/>
<path d="M5.188 9.375L2.2505 12.3125C2.188 12.375 2.188 12.4687 2.2505 12.5312L2.3755 12.6562C2.438 12.7188 2.53175 12.7188 2.59425 12.6562L5.188 10.0625V9.375ZM5.313 7.96875L1.40675 9.8125C1.34425 9.84375 1.28175 9.9375 1.34425 10.0312L1.40675 10.1875C1.438 10.25 1.53175 10.3125 1.6255 10.25L5.313 8.5V7.96875Z" fill="#FFE62E"/>
<path d="M8.78125 8.5L5.0625 7.84375V8.3125L8.71875 8.96875C8.8125 8.96875 8.875 8.9375 8.90625 8.84375L8.9375 8.6875C8.90625 8.59375 8.84375 8.5 8.78125 8.5M5.28125 12.1563C5.21875 12.1875 5.15625 12.2812 5.21875 12.375L5.28125 12.5312C5.3125 12.5937 5.40625 12.6562 5.5 12.5937L8.625 11.1563L8.78125 10.5625L5.28125 12.1563M5.28125 11.0937L1.78125 9.8125V10.3125L5.28125 11.5937V11.0937Z" fill="#FFE62E"/>
<path d="M2.84473 12.125V12.5938L7.46973 12.9062C7.65723 12.7812 7.81348 12.625 7.96973 12.4688L2.84473 12.125Z" fill="#FFE62E"/>
<path d="M3.75 8.4375V10.625C3.75 11.5 4.4375 12.1875 5.3125 12.1875C6.1875 12.1875 6.875 11.5 6.875 10.625V8.4375H3.75Z" fill="white"/>
<path d="M5.3125 12.8125C4.09375 12.8125 3.125 11.8438 3.125 10.625V7.8125H7.5V10.625C7.5 11.8438 6.53125 12.8125 5.3125 12.8125ZM4.375 9.0625V10.625C4.375 11.1563 4.78125 11.5625 5.3125 11.5625C5.84375 11.5625 6.25 11.1563 6.25 10.625V9.0625H4.375Z" fill="#C75470"/>
<path d="M5.03125 9.1875V9.6875C5.03125 9.78125 5.09375 9.84375 5.1875 9.84375H5.4375C5.53125 9.84375 5.59375 9.78125 5.59375 9.6875V9.15625H5.03125V9.1875ZM5.03125 9.96875V10.5C5.03125 10.5937 5.09375 10.6562 5.1875 10.6562H5.4375C5.53125 10.6562 5.59375 10.5937 5.59375 10.5V9.96875H5.03125M4.40625 9.96875V10.5C4.40625 10.5937 4.46875 10.6562 4.5625 10.6562H4.8125C4.90625 10.6562 4.96875 10.5937 4.96875 10.5V9.96875H4.40625ZM5.65625 9.96875V10.5C5.65625 10.5937 5.71875 10.6562 5.8125 10.6562H6.0625C6.15625 10.6562 6.21875 10.5937 6.21875 10.5V9.96875H5.65625ZM5.03125 10.7188V11.25C5.03125 11.3438 5.09375 11.4063 5.1875 11.4063H5.4375C5.53125 11.4063 5.59375 11.3438 5.59375 11.25V10.7188H5.03125" fill="#0071BC"/>
<path d="M5.3125 10.3437C5.34702 10.3437 5.375 10.3158 5.375 10.2813C5.375 10.2467 5.34702 10.2188 5.3125 10.2188C5.27798 10.2188 5.25 10.2467 5.25 10.2813C5.25 10.3158 5.27798 10.3437 5.3125 10.3437Z" fill="white"/>
<path d="M5.1875 10.5C5.22202 10.5 5.25 10.472 5.25 10.4375C5.25 10.403 5.22202 10.375 5.1875 10.375C5.15298 10.375 5.125 10.403 5.125 10.4375C5.125 10.472 5.15298 10.5 5.1875 10.5Z" fill="white"/>
<path d="M5.4375 10.5C5.47202 10.5 5.5 10.472 5.5 10.4375C5.5 10.403 5.47202 10.375 5.4375 10.375C5.40298 10.375 5.375 10.403 5.375 10.4375C5.375 10.472 5.40298 10.5 5.4375 10.5Z" fill="white"/>
<path d="M5.1875 10.1875C5.22202 10.1875 5.25 10.1595 5.25 10.125C5.25 10.0905 5.22202 10.0625 5.1875 10.0625C5.15298 10.0625 5.125 10.0905 5.125 10.125C5.125 10.1595 5.15298 10.1875 5.1875 10.1875Z" fill="white"/>
<path d="M5.4375 10.1875C5.47202 10.1875 5.5 10.1595 5.5 10.125C5.5 10.0905 5.47202 10.0625 5.4375 10.0625C5.40298 10.0625 5.375 10.0905 5.375 10.125C5.375 10.1595 5.40298 10.1875 5.4375 10.1875Z" fill="white"/>
<path d="M5.3125 9.5625C5.34702 9.5625 5.375 9.53452 5.375 9.5C5.375 9.46548 5.34702 9.4375 5.3125 9.4375C5.27798 9.4375 5.25 9.46548 5.25 9.5C5.25 9.53452 5.27798 9.5625 5.3125 9.5625Z" fill="white"/>
<path d="M5.1875 9.71875C5.22202 9.71875 5.25 9.69077 5.25 9.65625C5.25 9.62173 5.22202 9.59375 5.1875 9.59375C5.15298 9.59375 5.125 9.62173 5.125 9.65625C5.125 9.69077 5.15298 9.71875 5.1875 9.71875Z" fill="white"/>
<path d="M5.4375 9.71875C5.47202 9.71875 5.5 9.69077 5.5 9.65625C5.5 9.62173 5.47202 9.59375 5.4375 9.59375C5.40298 9.59375 5.375 9.62173 5.375 9.65625C5.375 9.69077 5.40298 9.71875 5.4375 9.71875Z" fill="white"/>
<path d="M5.1875 9.40625C5.22202 9.40625 5.25 9.37827 5.25 9.34375C5.25 9.30923 5.22202 9.28125 5.1875 9.28125C5.15298 9.28125 5.125 9.30923 5.125 9.34375C5.125 9.37827 5.15298 9.40625 5.1875 9.40625Z" fill="white"/>
<path d="M5.4375 9.40625C5.47202 9.40625 5.5 9.37827 5.5 9.34375C5.5 9.30923 5.47202 9.28125 5.4375 9.28125C5.40298 9.28125 5.375 9.30923 5.375 9.34375C5.375 9.37827 5.40298 9.40625 5.4375 9.40625Z" fill="white"/>
<path d="M5.9375 10.3437C5.97202 10.3437 6 10.3158 6 10.2813C6 10.2467 5.97202 10.2188 5.9375 10.2188C5.90298 10.2188 5.875 10.2467 5.875 10.2813C5.875 10.3158 5.90298 10.3437 5.9375 10.3437Z" fill="white"/>
<path d="M5.8125 10.5C5.84702 10.5 5.875 10.472 5.875 10.4375C5.875 10.403 5.84702 10.375 5.8125 10.375C5.77798 10.375 5.75 10.403 5.75 10.4375C5.75 10.472 5.77798 10.5 5.8125 10.5Z" fill="white"/>
<path d="M6.0625 10.5C6.09702 10.5 6.125 10.472 6.125 10.4375C6.125 10.403 6.09702 10.375 6.0625 10.375C6.02798 10.375 6 10.403 6 10.4375C6 10.472 6.02798 10.5 6.0625 10.5Z" fill="white"/>
<path d="M5.8125 10.1875C5.84702 10.1875 5.875 10.1595 5.875 10.125C5.875 10.0905 5.84702 10.0625 5.8125 10.0625C5.77798 10.0625 5.75 10.0905 5.75 10.125C5.75 10.1595 5.77798 10.1875 5.8125 10.1875Z" fill="white"/>
<path d="M6.0625 10.1875C6.09702 10.1875 6.125 10.1595 6.125 10.125C6.125 10.0905 6.09702 10.0625 6.0625 10.0625C6.02798 10.0625 6 10.0905 6 10.125C6 10.1595 6.02798 10.1875 6.0625 10.1875Z" fill="white"/>
<path d="M4.6875 10.3437C4.72202 10.3437 4.75 10.3158 4.75 10.2813C4.75 10.2467 4.72202 10.2188 4.6875 10.2188C4.65298 10.2188 4.625 10.2467 4.625 10.2813C4.625 10.3158 4.65298 10.3437 4.6875 10.3437Z" fill="white"/>
<path d="M4.5625 10.5C4.59702 10.5 4.625 10.472 4.625 10.4375C4.625 10.403 4.59702 10.375 4.5625 10.375C4.52798 10.375 4.5 10.403 4.5 10.4375C4.5 10.472 4.52798 10.5 4.5625 10.5Z" fill="white"/>
<path d="M4.8125 10.5C4.84702 10.5 4.875 10.472 4.875 10.4375C4.875 10.403 4.84702 10.375 4.8125 10.375C4.77798 10.375 4.75 10.403 4.75 10.4375C4.75 10.472 4.77798 10.5 4.8125 10.5Z" fill="white"/>
<path d="M4.5625 10.1875C4.59702 10.1875 4.625 10.1595 4.625 10.125C4.625 10.0905 4.59702 10.0625 4.5625 10.0625C4.52798 10.0625 4.5 10.0905 4.5 10.125C4.5 10.1595 4.52798 10.1875 4.5625 10.1875Z" fill="white"/>
<path d="M4.8125 10.1875C4.84702 10.1875 4.875 10.1595 4.875 10.125C4.875 10.0905 4.84702 10.0625 4.8125 10.0625C4.77798 10.0625 4.75 10.0905 4.75 10.125C4.75 10.1595 4.77798 10.1875 4.8125 10.1875Z" fill="white"/>
<path d="M5.3125 11.125C5.34702 11.125 5.375 11.097 5.375 11.0625C5.375 11.028 5.34702 11 5.3125 11C5.27798 11 5.25 11.028 5.25 11.0625C5.25 11.097 5.27798 11.125 5.3125 11.125Z" fill="white"/>
<path d="M5.1875 11.2812C5.22202 11.2812 5.25 11.2533 5.25 11.2188C5.25 11.1842 5.22202 11.1562 5.1875 11.1562C5.15298 11.1562 5.125 11.1842 5.125 11.2188C5.125 11.2533 5.15298 11.2812 5.1875 11.2812Z" fill="white"/>
<path d="M5.4375 11.2812C5.47202 11.2812 5.5 11.2533 5.5 11.2188C5.5 11.1842 5.47202 11.1562 5.4375 11.1562C5.40298 11.1562 5.375 11.1842 5.375 11.2188C5.375 11.2533 5.40298 11.2812 5.4375 11.2812Z" fill="white"/>
<path d="M5.1875 10.9687C5.22202 10.9687 5.25 10.9408 5.25 10.9063C5.25 10.8717 5.22202 10.8438 5.1875 10.8438C5.15298 10.8438 5.125 10.8717 5.125 10.9063C5.125 10.9408 5.15298 10.9687 5.1875 10.9687Z" fill="white"/>
<path d="M5.4375 10.9687C5.47202 10.9687 5.5 10.9408 5.5 10.9063C5.5 10.8717 5.47202 10.8438 5.4375 10.8438C5.40298 10.8438 5.375 10.8717 5.375 10.9063C5.375 10.9408 5.40298 10.9687 5.4375 10.9687Z" fill="white"/>
<path d="M5 8.75H5.625L5.5625 8.4375V8.125H5.625V7.96875H5.53125V8.0625H5.5V7.96875H5.40625V8.0625H5.34375V7.96875H5.28125V8.0625H5.21875V7.96875H5.125V8.0625H5.0625V7.96875H5V8.125H5.0625V8.4375L5 8.75Z" fill="#FFE62E"/>
<path d="M5.40625 8.75H5.375V8.625C5.375 8.59375 5.34375 8.5625 5.3125 8.5625C5.28125 8.5625 5.25 8.59375 5.25 8.625V8.75H5.21875V8.625C5.21875 8.5625 5.25 8.53125 5.3125 8.53125C5.375 8.53125 5.40625 8.5625 5.40625 8.625V8.75ZM5.3125 8.40625H5.125V8.25C5.125 8.1875 5.15625 8.15625 5.21875 8.15625C5.28125 8.15625 5.3125 8.1875 5.3125 8.25V8.40625ZM5.15625 8.375H5.28125V8.25C5.28125 8.21875 5.25 8.1875 5.21875 8.1875C5.1875 8.1875 5.15625 8.21875 5.15625 8.25V8.375ZM5.5 8.40625H5.3125V8.25C5.3125 8.1875 5.34375 8.15625 5.40625 8.15625C5.46875 8.15625 5.5 8.1875 5.5 8.25V8.40625ZM5.34375 8.375H5.46875V8.25C5.46875 8.21875 5.4375 8.1875 5.40625 8.1875C5.375 8.1875 5.34375 8.21875 5.34375 8.25V8.375Z" fill="#3E4347"/>
<path d="M3.4375 8.75H4.0625L4 8.4375V8.125H4.0625V7.96875H3.96875V8.0625H3.9375V7.96875H3.84375V8.0625H3.78125V7.96875H3.71875V8.0625H3.65625V7.96875H3.5625V8.0625H3.5V7.96875H3.4375V8.125H3.5V8.4375L3.4375 8.75Z" fill="#FFE62E"/>
<path d="M3.84375 8.75H3.8125V8.625C3.8125 8.59375 3.78125 8.5625 3.75 8.5625C3.71875 8.5625 3.6875 8.59375 3.6875 8.625V8.75H3.65625V8.625C3.65625 8.5625 3.6875 8.53125 3.75 8.53125C3.8125 8.53125 3.84375 8.5625 3.84375 8.625V8.75M3.75 8.40625H3.5625V8.25C3.5625 8.1875 3.59375 8.15625 3.65625 8.15625C3.71875 8.15625 3.75 8.1875 3.75 8.25V8.40625M3.59375 8.375H3.71875V8.25C3.71875 8.21875 3.6875 8.1875 3.65625 8.1875C3.625 8.1875 3.59375 8.21875 3.59375 8.25V8.375" fill="#3E4347"/>
<path d="M3.9375 8.40625H3.75V8.25C3.75 8.1875 3.78125 8.15625 3.84375 8.15625C3.90625 8.15625 3.9375 8.1875 3.9375 8.25V8.40625M3.78125 8.375H3.90625V8.25C3.90625 8.21875 3.875 8.1875 3.84375 8.1875C3.8125 8.1875 3.78125 8.21875 3.78125 8.25V8.375" fill="#3E4347"/>
<path d="M3.4375 10.5938H4.0625L4 10.2813V9.96875H4.0625V9.8125H4V9.90625H3.9375V9.8125H3.875V9.90625H3.78125V9.8125H3.71875V9.90625H3.65625V9.8125H3.59375V9.90625H3.53125V9.8125H3.4375V9.96875H3.53125V10.2813L3.4375 10.5938Z" fill="#FFE62E"/>
<path d="M3.84375 10.5938H3.8125V10.4688C3.8125 10.4375 3.78125 10.4062 3.75 10.4062C3.71875 10.4062 3.6875 10.4375 3.6875 10.4688V10.5938H3.65625V10.4688C3.65625 10.4062 3.6875 10.375 3.75 10.375C3.8125 10.375 3.84375 10.4062 3.84375 10.4688V10.5938M3.75 10.25H3.5625V10.0937C3.5625 10.0312 3.59375 10 3.65625 10C3.71875 10 3.75 10.0312 3.75 10.0937V10.25M3.59375 10.2188H3.71875V10.0937C3.71875 10.0625 3.6875 10.0312 3.65625 10.0312C3.625 10.0312 3.59375 10.0625 3.59375 10.0937V10.2188M3.96875 10.25H3.78125V10.0937C3.78125 10.0312 3.8125 10 3.875 10C3.9375 10 3.96875 10.0312 3.96875 10.0937V10.25M3.8125 10.2188H3.9375V10.0937C3.9375 10.0625 3.90625 10.0312 3.875 10.0312C3.84375 10.0312 3.8125 10.0625 3.8125 10.0937V10.2188" fill="#3E4347"/>
<path d="M6.5625 10.625H7.1875L7.125 10.3125V10H7.1875V9.875H7.09375V9.9375H7.0625V9.875H6.96875V9.9375H6.90625V9.875H6.84375V9.9375H6.78125V9.875H6.6875V9.9375H6.625V9.875H6.5625V10H6.625V10.3125L6.5625 10.625Z" fill="#FFE62E"/>
<path d="M6.96875 10.625H6.9375V10.5C6.9375 10.4687 6.90625 10.4375 6.875 10.4375C6.84375 10.4375 6.8125 10.4687 6.8125 10.5V10.625H6.78125V10.5C6.78125 10.4375 6.8125 10.4063 6.875 10.4063C6.9375 10.4063 6.96875 10.4375 6.96875 10.5V10.625ZM6.875 10.2813H6.6875V10.125C6.6875 10.0625 6.71875 10.0312 6.78125 10.0312C6.84375 10.0312 6.875 10.0625 6.875 10.125V10.2813ZM6.71875 10.25H6.84375V10.125C6.84375 10.0938 6.8125 10.0625 6.78125 10.0625C6.75 10.0625 6.71875 10.0938 6.71875 10.125V10.25ZM7.0625 10.2813H6.875V10.125C6.875 10.0625 6.90625 10.0312 6.96875 10.0312C7.03125 10.0312 7.0625 10.0625 7.0625 10.125V10.2813ZM6.90625 10.25H7.03125V10.125C7.03125 10.0938 7 10.0625 6.96875 10.0625C6.9375 10.0625 6.90625 10.0938 6.90625 10.125V10.25Z" fill="#3E4347"/>
<path d="M6.5625 8.75H7.1875L7.125 8.4375V8.125H7.1875V7.96875H7.09375V8.0625H7.0625V7.96875H6.96875V8.0625H6.90625V7.96875H6.84375V8.0625H6.78125V7.96875H6.6875V8.0625H6.625V7.96875H6.5625V8.125H6.625V8.4375L6.5625 8.75Z" fill="#FFE62E"/>
<path d="M6.96875 8.75H6.9375V8.625C6.9375 8.59375 6.90625 8.5625 6.875 8.5625C6.84375 8.5625 6.8125 8.59375 6.8125 8.625V8.75H6.78125V8.625C6.78125 8.5625 6.8125 8.53125 6.875 8.53125C6.9375 8.53125 6.96875 8.5625 6.96875 8.625V8.75ZM6.875 8.40625H6.6875V8.25C6.6875 8.1875 6.71875 8.15625 6.78125 8.15625C6.84375 8.15625 6.875 8.1875 6.875 8.25V8.40625ZM6.71875 8.375H6.84375V8.25C6.84375 8.21875 6.8125 8.1875 6.78125 8.1875C6.75 8.1875 6.71875 8.21875 6.71875 8.25V8.375ZM7.0625 8.40625H6.875V8.25C6.875 8.1875 6.90625 8.15625 6.96875 8.15625C7.03125 8.15625 7.0625 8.1875 7.0625 8.25V8.40625ZM6.90625 8.375H7.03125V8.25C7.03125 8.21875 7 8.1875 6.96875 8.1875C6.9375 8.1875 6.90625 8.21875 6.90625 8.25V8.375Z" fill="#3E4347"/>
<path d="M4.4375 12.375L4.875 11.9062L4.59375 11.75L4.375 11.5312L4.4375 11.4687L4.34375 11.375L4.28125 11.4375L4.34375 11.5L4.3125 11.5312L4.25 11.4687L4.1875 11.5312L4.25 11.5625L4.1875 11.625L4.15625 11.5625L4.09375 11.625L4.15625 11.6875L4.09375 11.7187L4.0625 11.6562L4 11.7187L4.03125 11.7812L4 11.8125L3.96875 11.75L3.90625 11.8125L4 11.9062H4.03125L4.0625 11.875L4.28125 12.0937L4.4375 12.375Z" fill="#FFE62E"/>
<path d="M4.71875 12.0625L4.59375 12C4.5625 11.9688 4.53125 11.9688 4.5 12C4.46875 12.0313 4.46875 12.0625 4.5 12.0938L4.59375 12.1875L4.5625 12.2187L4.46875 12.125C4.4375 12.0937 4.4375 12.0313 4.46875 12C4.5 11.9688 4.5625 11.9688 4.59375 12L4.71875 12.0625ZM4.40625 11.9062L4.28125 12.0313L4.1875 11.9375C4.15625 11.9063 4.15625 11.8437 4.1875 11.8125C4.21875 11.7812 4.28125 11.7812 4.3125 11.8125L4.40625 11.9062ZM4.28125 12L4.375 11.9062L4.28125 11.8125C4.25 11.7812 4.21875 11.7812 4.1875 11.8125C4.15625 11.8437 4.15625 11.875 4.1875 11.9062L4.28125 12ZM4.5625 11.75L4.4375 11.875L4.34375 11.7813C4.3125 11.75 4.3125 11.6875 4.34375 11.6562C4.375 11.625 4.4375 11.625 4.46875 11.6562L4.5625 11.75ZM4.4375 11.8438L4.53125 11.75L4.4375 11.6562C4.40625 11.625 4.375 11.625 4.34375 11.6562C4.3125 11.6875 4.3125 11.7187 4.34375 11.75L4.4375 11.8438Z" fill="#3E4347"/>
<path d="M6.1875 12.375L5.75 11.9062L6 11.75L6.21875 11.5312L6.1875 11.4687L6.28125 11.375L6.34375 11.4375L6.28125 11.5L6.3125 11.5312L6.375 11.4687L6.4375 11.5312L6.375 11.5625L6.4375 11.625L6.46875 11.5625L6.53125 11.625L6.46875 11.6875L6.53125 11.7187L6.5625 11.6562L6.625 11.7187L6.5625 11.7812L6.625 11.8125L6.65625 11.75L6.71875 11.8125L6.625 11.9062H6.59375L6.5625 11.875L6.34375 12.0937L6.1875 12.375Z" fill="#FFE62E"/>
<path d="M5.90625 12.0625L6.03125 12C6.0625 11.9688 6.09375 11.9688 6.125 12C6.15625 12.0313 6.15625 12.0625 6.125 12.0938L6 12.1875L6.03125 12.2187L6.125 12.125C6.15625 12.0937 6.15625 12.0313 6.125 12C6.09375 11.9688 6.03125 11.9688 6 12L5.90625 12.0625M6.3125 11.8125C6.34375 11.7812 6.40625 11.7812 6.4375 11.8125C6.46875 11.8437 6.46875 11.9063 6.4375 11.9375L6.34375 12.0313L6.21875 11.9062L6.3125 11.8125ZM6.40625 11.9062C6.4375 11.875 6.4375 11.8437 6.40625 11.8125C6.375 11.7812 6.34375 11.7812 6.3125 11.8125L6.25 11.9062L6.34375 12L6.40625 11.9062ZM6.15625 11.6562C6.1875 11.625 6.25 11.625 6.28125 11.6562C6.3125 11.6875 6.3125 11.75 6.28125 11.7813L6.1875 11.875L6.0625 11.75L6.15625 11.6562ZM6.28125 11.75C6.3125 11.7187 6.3125 11.6875 6.28125 11.6562C6.25 11.625 6.21875 11.625 6.1875 11.6562L6.09375 11.75L6.1875 11.8438L6.28125 11.75Z" fill="#3E4347"/>
</g>
<defs>
<clipPath id="clip0_354_5596">
<rect width="20" height="20" fill="white"/>
</clipPath>
</defs>
</svg>
