<svg width="20" height="20" viewBox="0 0 20 20" fill="none" xmlns="http://www.w3.org/2000/svg">
<path d="M0.625 10C0.625 4.82233 4.82233 0.625 10 0.625C15.1777 0.625 19.375 4.82233 19.375 10C19.375 15.1777 15.1777 19.375 10 19.375C4.82233 19.375 0.625 15.1777 0.625 10Z" fill="#428BC1"/>
<path d="M10.125 0.625732C10.0834 0.625244 10.0417 0.625 10 0.625C8.61812 0.625 7.30606 0.923828 6.125 1.46069V8.125H0.812531C0.68956 8.73096 0.625 9.35791 0.625 10C0.625 10.731 0.708633 11.4424 0.866852 12.125H6.125V18.5391C7.30606 19.0757 8.61812 19.375 10 19.375C10.0417 19.375 10.0834 19.374 10.125 19.374V12.125H19.1331C19.2914 11.4424 19.375 10.731 19.375 10C19.375 9.35791 19.3104 8.73096 19.1875 8.125H10.125V0.625732Z" fill="#FFCE31"/>
</svg>
